<?xml version="1.0" standalone="no"?>
<!DOCTYPE svg PUBLIC "-//W3C//DTD SVG 20010904//EN"
 "http://www.w3.org/TR/2001/REC-SVG-20010904/DTD/svg10.dtd">
<svg version="1.0" xmlns="http://www.w3.org/2000/svg"
 width="477.000000pt" height="704.000000pt" viewBox="0 0 477.000000 704.000000"
 preserveAspectRatio="xMidYMid meet">

<g transform="translate(0.000000,704.000000) scale(0.100000,-0.100000)"
fill="#000000" stroke="none">
<path d="M2193 6763 c4 -6 -3 -8 -18 -6 -13 3 -38 -3 -55 -13 -27 -16 -32 -17
-40 -4 -8 12 -10 12 -16 -3 -3 -9 -14 -17 -23 -17 -9 0 -22 -5 -29 -12 -15
-15 -16 -48 0 -48 6 0 8 -3 5 -6 -4 -4 -13 -2 -20 4 -8 7 -18 8 -23 4 -4 -4
-2 2 6 13 15 19 14 19 -10 4 -15 -10 -28 -31 -34 -54 -9 -38 -33 -75 -49 -75
-5 0 -2 7 7 15 14 14 14 18 -1 34 -20 24 -60 13 -55 -15 3 -16 2 -16 -14 -3
-10 7 -15 9 -11 3 4 -7 -2 -14 -14 -17 -14 -4 -20 -11 -16 -20 4 -10 -4 -19
-24 -27 -16 -7 -29 -17 -29 -22 0 -5 9 -4 20 2 11 6 20 9 20 7 0 -12 -39 -45
-65 -55 -18 -7 -39 -28 -50 -49 -11 -20 -27 -44 -36 -52 -9 -9 -25 -32 -36
-52 -22 -42 -98 -119 -118 -119 -7 0 -17 -9 -20 -20 -4 -11 -10 -18 -14 -16
-13 9 -40 -49 -31 -64 14 -21 12 -30 -4 -30 -8 0 -17 7 -20 16 -5 14 -10 11
-29 -12 -12 -16 -21 -32 -20 -36 2 -4 -3 -5 -11 -2 -7 3 -20 -5 -28 -18 -9
-13 -25 -34 -37 -47 -11 -13 -18 -28 -15 -32 3 -5 0 -9 -7 -9 -6 0 -9 -8 -6
-20 3 -11 0 -23 -5 -27 -7 -3 -8 -1 -4 5 4 7 1 12 -8 12 -15 0 -42 -38 -38
-53 1 -5 -2 -6 -7 -3 -11 7 -33 -18 -24 -27 3 -4 2 -7 -4 -7 -5 0 -15 -11 -21
-25 -6 -14 -8 -25 -3 -25 4 0 8 -6 8 -13 0 -8 -6 -14 -13 -14 -7 0 -10 5 -7
11 4 6 0 5 -9 -2 -9 -7 -19 -27 -22 -45 -4 -21 -9 -28 -15 -19 -5 8 -18 -9
-39 -53 -18 -35 -32 -71 -32 -78 0 -8 -3 -17 -7 -21 -4 -3 -8 -13 -9 -21 -2
-11 2 -12 17 -2 16 10 21 9 29 -3 5 -8 10 -19 10 -25 -1 -5 -6 -1 -12 9 -10
18 -12 17 -29 -15 -10 -19 -18 -28 -19 -20 0 8 -3 11 -6 8 -4 -4 -1 -13 5 -21
7 -9 8 -17 2 -20 -5 -3 -7 -15 -4 -26 3 -11 0 -27 -7 -35 -6 -8 -9 -22 -6 -32
3 -10 8 -40 11 -67 2 -27 7 -51 10 -54 3 -3 0 -11 -7 -19 -16 -19 -2 -28 19
-12 17 13 17 13 4 -4 -12 -15 -12 -20 -2 -27 8 -4 9 -10 4 -13 -13 -8 -10 -42
4 -59 6 -7 12 -17 13 -23 6 -26 13 -34 24 -28 6 3 7 2 3 -3 -5 -5 -30 -9 -55
-9 -32 0 -46 -4 -44 -12 1 -7 -2 -13 -8 -13 -5 0 -10 5 -10 11 0 7 -7 8 -17 4
-10 -4 -25 -7 -33 -8 -8 0 -21 -5 -29 -11 -8 -6 -24 -9 -37 -8 -16 2 -27 -3
-32 -15 -8 -20 -33 -30 -30 -11 2 7 -13 12 -39 13 -24 1 -43 -2 -43 -6 0 -5
-6 -9 -14 -9 -16 0 -42 -57 -38 -82 2 -9 -2 -19 -7 -22 -7 -4 -7 -15 -1 -31 6
-15 5 -25 -1 -27 -6 -2 -12 -23 -15 -48 -3 -24 -8 -49 -12 -55 -3 -5 1 -4 10
3 11 9 18 10 23 2 3 -5 -4 -14 -17 -19 -14 -6 -17 -10 -7 -10 9 -1 16 -8 16
-16 0 -10 -4 -12 -12 -5 -7 6 -11 3 -11 -9 0 -13 7 -18 22 -16 19 2 22 -2 18
-31 -4 -29 -1 -33 26 -39 19 -4 30 -13 30 -23 0 -11 3 -13 8 -6 5 8 13 4 25
-12 10 -13 13 -24 7 -24 -6 0 -35 -15 -63 -34 -48 -30 -53 -37 -52 -67 1 -19
-4 -41 -12 -50 -8 -9 -16 -47 -19 -84 -5 -62 -4 -67 16 -72 12 -3 19 -11 16
-19 -3 -8 0 -11 10 -7 8 3 14 -1 14 -11 0 -9 5 -16 10 -16 6 0 9 -3 8 -8 -4
-11 38 -62 46 -55 3 3 6 1 6 -5 0 -15 58 -45 71 -36 6 4 15 1 19 -6 7 -12 54
-20 138 -22 20 -1 29 -5 23 -11 -5 -5 -7 -16 -4 -24 3 -8 0 -13 -7 -11 -7 2
-14 -6 -16 -16 -3 -23 14 -59 25 -52 5 3 11 -13 14 -37 4 -23 9 -57 13 -75 6
-29 4 -32 -12 -26 -11 4 -16 4 -12 -1 4 -4 3 -15 -4 -22 -9 -11 -9 -17 3 -24
8 -5 10 -9 5 -9 -6 0 -3 -6 6 -12 22 -18 31 -49 13 -41 -8 3 -12 10 -9 15 4 6
1 8 -7 6 -8 -3 -13 -11 -11 -18 1 -7 -1 -17 -6 -24 -6 -7 -3 -18 9 -30 19 -19
19 -19 20 5 0 22 1 22 8 4 13 -34 2 -56 -25 -49 -23 6 -30 -5 -25 -38 0 -4 2
-22 3 -40 3 -40 26 -62 47 -45 12 10 13 9 5 -3 -13 -21 -13 -100 0 -100 7 0 7
-3 1 -8 -5 -4 -11 -31 -11 -60 -1 -39 -9 -64 -29 -95 -15 -23 -22 -36 -14 -29
18 17 30 15 22 -5 -5 -12 -3 -14 7 -8 8 5 11 4 7 -2 -4 -6 -19 -8 -33 -5 -16
3 -25 1 -21 -5 3 -5 -3 -16 -14 -24 -23 -16 -62 -76 -66 -99 -1 -8 3 -18 10
-22 7 -5 3 -8 -12 -8 -16 0 -21 -4 -17 -15 3 -9 0 -15 -9 -15 -9 0 -15 -10
-15 -25 0 -15 -7 -28 -18 -32 -26 -10 -44 -31 -37 -43 11 -18 -4 -60 -22 -60
-24 0 -44 -32 -30 -48 8 -10 7 -12 -4 -10 -9 2 -15 -7 -17 -24 -2 -16 -7 -28
-12 -28 -5 0 -9 -8 -9 -17 0 -27 -9 -105 -14 -128 -2 -11 -2 -24 1 -29 3 -5 6
-23 8 -40 1 -17 7 -32 13 -34 6 -2 11 -9 11 -17 0 -7 7 -18 15 -25 9 -7 14
-19 11 -26 -3 -8 -2 -13 2 -11 9 3 47 -36 62 -62 6 -12 16 -21 22 -21 6 0 5 7
-3 17 -9 11 -4 10 15 -5 15 -12 32 -19 37 -16 5 3 8 1 7 -4 -4 -11 57 -69 68
-65 5 2 15 -10 22 -27 8 -17 18 -27 24 -24 5 3 16 -2 23 -12 8 -11 15 -15 15
-11 0 4 10 -1 21 -12 15 -14 33 -19 60 -18 29 2 35 0 27 -10 -13 -16 4 -17 20
-1 9 9 12 8 12 -5 0 -9 5 -17 11 -17 5 0 7 -5 3 -11 -4 -8 -9 -8 -17 0 -17 17
-27 13 -27 -10 0 -13 4 -18 12 -14 7 4 5 0 -4 -8 -20 -16 -24 -37 -7 -37 5 0
7 -5 3 -12 -5 -7 -2 -9 9 -5 9 3 18 -1 21 -9 10 -25 7 -36 -6 -28 -7 4 2 -7
20 -24 19 -17 31 -36 27 -42 -4 -6 7 -15 24 -21 17 -6 31 -17 31 -24 0 -22 48
-68 64 -62 8 3 17 -1 20 -9 4 -11 -1 -13 -19 -10 -16 3 -23 1 -19 -5 3 -6 9
-8 12 -5 7 7 38 -36 34 -47 -1 -5 2 -6 7 -2 6 3 15 -3 20 -14 8 -13 17 -17 32
-14 17 5 20 3 14 -7 -6 -10 -4 -12 9 -7 10 4 15 3 11 -3 -3 -6 -2 -10 4 -10 5
0 15 -16 22 -34 7 -19 17 -32 23 -29 6 4 1 -10 -11 -29 -12 -21 -20 -47 -17
-60 3 -18 3 -19 -4 -5 -8 19 -26 20 -28 2 0 -5 -2 -16 -2 -23 -1 -7 -6 -10
-12 -7 -15 9 -12 -51 3 -64 8 -6 18 -7 22 -3 5 4 5 -1 2 -11 -4 -9 -4 -24 -1
-32 6 -14 8 -13 21 2 14 17 14 17 9 1 -3 -12 0 -18 10 -18 12 0 13 -8 8 -35
-5 -28 -3 -35 10 -35 9 0 21 -9 28 -20 7 -11 21 -20 30 -20 18 0 20 -5 21 -47
0 -13 5 -23 11 -23 6 0 3 -5 -6 -11 -13 -7 -15 -15 -8 -33 5 -13 6 -26 4 -29
-9 -9 18 -126 32 -138 8 -6 14 -18 14 -25 0 -8 8 -14 18 -14 14 0 15 -2 2 -10
-12 -7 -12 -12 -2 -22 6 -6 12 -25 12 -40 0 -33 15 -37 30 -7 7 11 14 18 17
15 10 -10 -27 -57 -39 -50 -7 5 -8 2 -2 -7 5 -8 7 -22 5 -32 -1 -10 6 -25 16
-34 10 -8 12 -12 6 -8 -9 4 -11 1 -7 -9 3 -9 9 -14 14 -11 4 2 5 -7 2 -22 -3
-16 -1 -24 5 -20 6 4 8 -4 5 -21 -5 -25 -4 -26 12 -9 26 26 33 14 31 -52 -2
-57 -1 -59 18 -49 14 7 17 7 13 -1 -4 -6 -2 -11 3 -11 6 0 11 -7 11 -15 0 -8
5 -15 11 -15 5 0 7 -4 4 -10 -3 -5 0 -10 9 -10 8 0 20 -13 27 -29 10 -22 17
-27 25 -20 9 7 14 4 18 -9 4 -11 15 -27 26 -37 17 -15 22 -16 36 -4 16 13 16
12 5 -9 -18 -34 -24 -32 130 -49 47 -5 58 -3 70 13 16 22 56 54 46 38 -4 -7 0
-17 7 -23 11 -10 16 -8 21 8 7 23 25 27 43 9 7 -7 12 -8 12 -2 0 6 -6 16 -12
23 -10 10 -7 10 16 -1 23 -10 30 -10 34 0 2 7 8 10 13 6 5 -3 9 2 9 11 0 11 5
15 14 12 8 -3 17 1 20 9 3 9 11 12 17 8 7 -4 18 1 25 10 7 11 14 13 19 7 4 -7
15 -2 28 13 12 12 28 21 35 19 6 -3 12 0 12 6 0 6 5 11 11 11 5 0 8 -4 5 -9
-12 -18 39 3 60 26 11 12 23 20 26 17 3 -2 8 2 11 11 4 8 2 15 -3 15 -6 0 -10
5 -10 11 0 6 7 9 15 5 8 -3 21 2 29 10 9 8 17 14 18 13 11 -7 48 15 53 31 3
10 15 22 26 25 10 4 19 13 19 22 0 10 6 13 17 9 10 -4 14 -4 11 0 -14 13 13
44 37 44 14 0 25 5 25 10 0 6 8 10 18 10 23 0 42 19 36 34 -3 8 12 18 35 26
24 8 38 17 34 25 -3 8 7 16 26 20 16 3 37 17 45 30 14 21 14 24 1 19 -8 -4
-15 -10 -15 -16 0 -5 -4 -6 -10 -3 -12 7 -14 26 -2 23 4 -2 21 3 38 10 26 11
30 18 27 40 -4 21 -2 24 6 12 6 -9 11 -10 11 -3 0 6 10 13 23 15 16 2 23 11
25 31 4 30 44 63 63 51 8 -4 9 -3 5 4 -4 7 -1 12 6 12 9 0 9 3 -2 10 -12 7
-12 12 -2 22 6 6 12 20 12 29 0 9 11 24 25 33 24 16 25 16 25 -6 1 -21 2 -21
11 -5 5 9 7 22 4 27 -3 6 1 7 9 4 10 -4 20 3 27 20 7 14 17 23 22 19 7 -4 8 1
3 12 -5 15 -4 16 8 6 11 -9 18 -7 34 14 12 14 23 31 25 38 3 9 8 9 18 -1 11
-10 10 -12 -4 -12 -9 0 -17 -7 -17 -16 0 -11 6 -15 20 -11 24 6 32 -4 19 -23
-9 -12 -12 -12 -16 -2 -4 10 -9 7 -20 -8 -11 -16 -12 -25 -4 -33 8 -8 11 -5
11 11 0 16 4 20 17 15 11 -4 13 -8 5 -11 -7 -2 -9 -9 -6 -14 4 -6 -2 -18 -12
-26 -18 -14 -18 -14 4 -9 29 7 30 -18 1 -34 -15 -8 -18 -13 -10 -18 7 -5 11
-12 10 -17 -1 -5 -1 -15 0 -23 1 -11 4 -11 18 0 15 13 15 12 4 -10 -11 -19
-11 -25 0 -32 7 -4 16 -6 20 -3 4 2 10 0 14 -6 4 -6 11 -8 16 -5 5 3 6 -1 2
-10 -5 -13 -7 -14 -14 -3 -7 11 -9 11 -9 -1 0 -10 -3 -11 -14 -2 -21 18 -15
-44 7 -70 10 -11 19 -31 20 -42 1 -12 9 -28 19 -35 10 -7 18 -19 18 -26 0 -18
43 -56 66 -57 10 0 14 -3 7 -5 -9 -4 -9 -11 -1 -29 8 -18 22 -26 54 -31 24 -3
44 -11 44 -18 0 -6 4 -6 9 3 6 9 11 10 15 2 4 -6 12 -9 17 -6 5 4 15 3 22 -2
20 -12 37 -12 69 1 17 7 50 11 73 8 25 -2 45 0 49 7 5 7 -1 11 -16 11 -13 0
-18 3 -12 8 6 4 14 17 18 30 4 12 12 22 17 22 6 0 7 5 4 10 -3 6 -2 10 2 10 5
0 8 14 7 30 -1 17 2 30 8 30 5 0 6 5 2 12 -9 14 -9 196 0 205 3 3 1 14 -5 24
-5 11 -6 19 -1 19 11 0 13 38 1 45 -14 9 -11 27 4 20 6 -4 3 1 -7 9 -17 14
-18 16 -3 16 10 0 17 8 17 20 0 11 -5 20 -11 20 -5 0 -7 -4 -4 -10 3 -5 1 -10
-4 -10 -15 0 -14 15 3 29 18 15 27 49 15 57 -5 3 -9 17 -9 31 0 15 3 23 7 20
3 -4 14 9 22 29 l17 37 2 -54 c1 -29 6 -55 10 -58 4 -4 8 -19 9 -36 2 -51 10
-87 20 -94 11 -7 27 -42 24 -54 0 -4 3 -16 8 -26 7 -12 6 -22 -1 -29 -9 -9 -8
-16 4 -29 8 -10 14 -33 13 -51 0 -17 3 -32 8 -32 4 0 6 -4 2 -9 -3 -5 1 -15 8
-23 8 -7 12 -19 9 -27 -3 -9 0 -11 8 -6 9 5 10 2 6 -13 -15 -47 93 -85 134
-47 10 9 23 15 31 13 7 -2 14 4 14 12 2 26 17 50 30 50 8 0 12 8 10 20 -2 11
0 20 6 20 5 0 9 8 9 19 0 10 10 26 23 35 12 9 16 14 10 11 -13 -6 -17 4 -14
40 2 17 0 18 -9 5 -10 -13 -11 -12 -6 3 3 10 6 22 6 25 0 4 4 1 9 -7 5 -7 14
-10 20 -7 14 9 14 27 0 23 -18 -3 -21 20 -4 27 11 4 14 2 9 -6 -4 -7 -3 -8 4
-4 16 9 15 56 0 56 -6 0 -3 6 7 14 18 13 18 14 -3 25 -28 15 -28 28 0 37 13 4
28 14 35 23 16 21 16 53 0 49 -7 -2 -12 2 -12 7 0 6 5 9 12 9 15 -2 11 42 -6
74 -10 19 -10 28 3 47 14 22 14 25 -1 40 -13 13 -18 14 -25 3 -6 -9 -8 -8 -6
7 2 12 -2 19 -10 17 -8 -1 -11 2 -7 8 3 5 15 10 25 10 14 0 18 7 18 29 -1 23
-7 31 -27 37 -20 6 -22 8 -8 11 9 3 17 11 17 20 0 19 -32 73 -43 73 -4 0 -5 5
-2 10 4 6 2 17 -4 24 -7 8 -10 18 -9 22 2 5 0 9 -3 9 -11 0 -39 27 -35 34 2 3
-8 15 -22 25 -16 12 -23 14 -18 5 4 -8 1 -6 -7 3 -8 10 -17 15 -20 11 -4 -3
-7 -2 -7 4 0 13 -33 13 -43 -1 -5 -7 -7 -3 -5 9 2 12 10 19 21 17 21 -4 22 4
2 12 -8 3 -21 -2 -30 -10 -12 -13 -15 -13 -15 -1 0 8 -9 13 -22 11 -13 -1 -34
-3 -47 -3 -15 -1 -21 -6 -18 -14 6 -17 -37 -17 -55 1 -14 14 -32 16 -23 2 3
-6 -1 -7 -9 -4 -9 3 -13 10 -10 15 3 5 1 9 -4 9 -5 0 -14 12 -20 26 -7 14 -17
22 -22 19 -6 -3 -7 1 -4 9 3 9 11 16 17 16 13 0 -27 30 -46 35 -42 11 -56 18
-50 29 4 6 1 6 -9 -2 -12 -10 -18 -9 -28 3 -8 9 -16 12 -19 6 -3 -5 -15 -11
-26 -13 -11 -1 -22 -5 -25 -9 -3 -3 -23 -16 -45 -29 -22 -13 -45 -31 -51 -39
-6 -8 -15 -11 -21 -8 -6 4 -19 0 -29 -8 -10 -8 -23 -14 -29 -15 -5 0 -3 5 5
11 11 8 9 9 -10 4 -14 -4 -29 -12 -35 -17 -6 -6 -4 -7 8 -2 13 5 16 2 11 -10
-3 -9 -10 -13 -15 -10 -5 3 -9 0 -9 -6 0 -6 -4 -9 -9 -6 -5 3 -23 -7 -40 -23
-18 -16 -45 -35 -61 -42 -16 -7 -27 -16 -24 -20 2 -4 -8 -9 -22 -12 -19 -3
-24 -1 -19 11 4 12 2 12 -8 4 -8 -7 -17 -9 -20 -5 -4 3 -7 1 -7 -5 0 -5 5 -12
11 -14 7 -2 5 -9 -5 -17 -14 -12 -16 -12 -10 3 5 12 2 15 -9 10 -9 -3 -15 -11
-13 -17 1 -7 1 -9 -1 -4 -3 4 -10 4 -16 0 -7 -3 -9 -3 -5 2 4 4 0 14 -10 22
-16 12 -16 13 2 7 15 -6 17 -3 12 14 -6 17 -4 21 9 16 9 -4 14 -13 11 -20 -3
-8 -1 -14 4 -14 6 0 10 9 10 19 0 11 5 23 11 27 7 4 7 9 1 13 -5 3 -12 16 -16
29 -7 19 -4 22 23 22 16 0 33 5 36 10 3 6 11 10 16 10 6 0 7 -4 4 -10 -3 -6 4
-10 17 -10 18 0 20 2 8 10 -12 8 -12 10 -1 10 9 0 12 8 9 24 -3 15 0 27 8 30
8 3 11 12 8 21 -5 11 -2 14 12 9 16 -4 16 -4 4 5 -9 5 -17 26 -18 45 -2 28 1
36 15 36 13 0 14 -3 5 -12 -7 -7 -12 -19 -12 -28 0 -11 6 -8 19 9 14 18 25 23
48 19 30 -4 39 10 18 29 -4 4 -5 3 -2 -3 4 -7 -3 -11 -19 -11 -26 0 -29 18 -3
23 7 1 28 9 44 18 24 13 26 16 10 17 -14 0 -16 2 -5 6 23 9 41 31 31 37 -5 3
-11 -1 -15 -9 -3 -8 -12 -15 -21 -15 -8 0 -15 -6 -15 -14 0 -8 -4 -17 -9 -20
-13 -9 -8 28 6 39 17 14 29 75 14 75 -6 0 -11 5 -11 11 0 7 7 8 18 4 27 -11
30 -11 30 0 0 6 -4 9 -9 8 -5 -2 -9 2 -9 7 0 6 7 10 15 10 14 0 20 17 16 47
-1 7 3 13 9 13 5 0 10 7 10 16 0 11 -6 15 -19 11 -20 -5 -32 11 -30 41 1 10 4
7 9 -8 8 -24 8 -24 9 -2 1 17 7 22 26 22 14 0 25 -4 25 -10 0 -5 -9 -10 -20
-10 -11 0 -20 -4 -20 -10 0 -5 15 -10 33 -10 17 0 42 -3 53 -6 14 -4 23 0 28
11 3 9 2 13 -4 10 -6 -3 -10 3 -10 15 0 14 4 19 13 14 10 -6 10 -4 0 7 -10 10
-16 10 -25 1 -14 -14 -28 -16 -28 -3 0 9 38 24 55 21 6 -1 5 4 -2 11 -8 8 -9
16 -1 29 13 20 4 50 -14 49 -10 0 -10 -2 0 -6 6 -2 12 -12 12 -21 -1 -14 -3
-14 -13 3 -16 27 -16 103 1 110 8 3 10 0 6 -7 -4 -6 -3 -8 3 -5 21 13 21 -22
0 -36 -16 -11 -17 -14 -4 -14 15 0 29 18 31 42 1 6 -5 16 -14 23 -13 12 -13
13 2 8 10 -3 20 -1 23 4 3 5 -9 7 -27 4 -29 -3 -33 -1 -34 22 -2 24 -1 24 16
9 10 -9 27 -15 37 -12 14 4 12 5 -6 6 -21 1 -22 3 -10 18 12 15 12 16 -6 9
-18 -7 -18 -5 3 14 23 21 28 31 15 29 -21 -3 -24 3 -12 19 13 15 12 16 -3 3
-24 -19 -48 -8 -41 19 4 16 8 18 14 9 5 -8 3 -17 -4 -21 -8 -5 -8 -8 -1 -8 6
0 19 9 28 19 13 14 14 21 5 27 -8 5 -10 3 -4 -6 5 -9 4 -11 -4 -6 -9 6 -9 11
0 22 14 17 -2 19 -20 2 -10 -11 -11 -10 -6 4 6 14 16 17 47 14 29 -3 37 -1 29
7 -12 12 -15 31 -3 24 4 -3 7 35 6 84 0 50 3 92 7 95 5 2 7 10 5 17 -1 7 -1 9
1 5 3 -5 9 -8 14 -8 6 0 7 5 4 10 -12 19 7 10 25 -12 17 -22 18 -21 16 46 0
37 2 70 7 73 4 2 5 9 2 14 -4 5 -2 9 4 9 9 0 6 44 -5 61 -2 4 0 11 6 14 8 5 8
11 0 20 -9 11 -7 12 9 8 12 -3 18 -10 14 -17 -11 -17 -14 -54 -5 -60 4 -2 7 8
6 25 -1 18 4 33 14 39 11 6 12 9 4 10 -7 0 -10 5 -7 10 4 6 12 7 18 3 8 -4 7
-1 -1 9 -9 11 -10 18 -2 23 7 4 5 11 -5 21 -13 14 -17 13 -37 -1 l-23 -17 27
6 c22 5 26 3 22 -9 -4 -8 -10 -15 -16 -15 -5 0 -6 -5 -2 -12 5 -7 3 -8 -7 -3
-7 5 -30 8 -51 6 -46 -3 -48 8 -8 39 33 25 38 40 16 40 -24 0 -25 81 -3 103
18 18 20 18 38 1 10 -9 19 -22 18 -28 0 -6 -3 -6 -6 2 -2 6 -14 11 -26 11 -18
-1 -19 -2 -4 -6 12 -3 16 -11 12 -23 -8 -25 26 -44 45 -27 12 10 12 9 1 -5 -7
-10 -17 -15 -22 -12 -5 3 -6 -2 -3 -10 7 -18 24 -21 24 -5 0 8 4 8 14 -1 8 -6
12 -18 9 -26 -3 -8 1 -14 8 -14 11 0 11 -3 -1 -10 -14 -9 -12 -11 20 -14 8 0
20 -17 26 -36 6 -19 16 -36 23 -38 6 -2 8 -8 5 -13 -7 -12 15 -41 26 -34 4 3
14 -3 21 -12 8 -10 9 -14 2 -10 -6 4 -14 3 -17 -1 -3 -5 6 -15 20 -22 13 -8
22 -20 20 -27 -3 -7 -1 -13 5 -13 6 0 8 -4 5 -9 -3 -5 1 -12 10 -15 8 -3 12
-11 9 -17 -12 -19 -17 -72 -6 -65 6 4 8 -1 6 -12 -4 -22 -7 -72 -6 -90 1 -7 6
-10 12 -7 5 4 1 -10 -11 -32 -11 -21 -16 -39 -10 -41 20 -7 9 -20 -12 -15 -22
4 -22 3 2 -11 14 -8 19 -15 12 -16 -7 0 -10 -5 -7 -10 3 -5 1 -10 -6 -10 -7 0
-6 -8 5 -24 12 -18 12 -26 3 -29 -7 -3 -4 -6 6 -6 10 -1 15 -6 12 -11 -4 -6
-12 -7 -18 -3 -8 4 -8 1 1 -9 18 -22 68 -42 88 -34 11 4 15 14 12 31 -6 28 3
32 22 10 7 -8 17 -15 23 -15 6 0 3 6 -7 13 -17 12 -17 15 -2 30 20 20 21 27 6
37 -8 5 -2 10 14 14 15 4 24 11 21 16 -3 6 0 10 7 10 9 0 9 3 -2 10 -11 7 -11
10 -2 10 7 0 10 5 7 10 -4 6 -10 8 -15 5 -11 -6 -2 45 9 60 9 10 -3 55 -14 55
-4 0 -3 -5 1 -12 4 -7 3 -8 -5 -4 -9 6 -9 11 -1 21 22 27 20 53 -6 62 -22 7
-23 10 -10 34 14 27 5 69 -14 69 -6 0 -8 4 -5 10 3 6 2 10 -4 10 -6 0 -8 7 -4
15 3 9 -2 22 -13 30 -11 8 -15 15 -11 15 5 0 0 15 -10 33 -29 51 -50 77 -57
69 -4 -3 -4 1 -1 9 3 9 -1 22 -10 29 -8 7 -15 18 -15 24 0 6 -29 39 -64 72
-52 49 -68 59 -82 51 -14 -8 -16 -7 -11 7 7 19 -8 22 -17 4 -4 -7 -4 -3 -2 9
2 13 -1 26 -6 30 -7 3 -8 1 -4 -5 4 -7 3 -12 -3 -12 -5 0 -13 4 -16 10 -3 5
-14 10 -23 10 -13 0 -14 -2 -3 -9 9 -6 10 -11 2 -15 -6 -4 -11 -2 -11 4 0 7
-8 9 -22 4 -19 -6 -18 -3 8 19 30 26 41 57 20 57 -6 0 -4 4 4 10 13 8 13 10 0
14 -8 3 -33 7 -55 9 -34 3 -31 4 15 6 51 1 53 3 36 16 -11 8 -35 15 -53 15
-23 0 -33 5 -33 15 0 19 79 21 100 3 12 -11 12 -10 1 5 -13 17 -6 23 22 18 5
-1 6 3 3 8 -8 13 135 1 185 -14 18 -6 20 -4 14 17 -4 16 -4 19 3 9 7 -9 16
-11 28 -6 11 5 24 9 29 10 23 2 75 37 70 45 -4 6 3 10 13 10 16 0 19 5 15 23
-3 12 -2 18 3 14 4 -4 13 2 20 15 10 18 8 29 -9 62 -11 23 -26 48 -33 56 -12
15 -14 19 -14 41 0 6 -9 8 -22 4 -20 -5 -21 -4 -6 5 10 6 24 10 31 8 15 -3 97
59 97 73 0 6 -4 7 -10 4 -5 -3 -10 -1 -10 4 0 6 5 11 11 11 5 0 8 4 5 9 -3 5
2 8 12 7 21 -1 19 43 -3 60 -19 14 -19 20 1 28 9 4 13 2 8 -5 -3 -6 5 -3 20 6
14 9 23 21 20 26 -3 5 0 9 7 9 8 0 8 4 -2 16 -7 9 -13 23 -14 33 -1 9 -10 38
-21 65 -17 42 -22 47 -46 43 -16 -2 -28 0 -28 5 0 4 5 8 10 8 20 0 9 15 -20
28 -16 7 -32 13 -35 12 -3 0 -18 11 -33 25 -15 14 -32 25 -39 25 -14 0 -60 58
-55 68 2 4 14 6 27 4 23 -3 42 20 43 52 0 5 7 13 16 18 11 6 14 17 10 32 -3
13 -1 26 4 30 14 8 2 56 -14 56 -8 0 -11 6 -8 15 7 18 -12 20 -20 3 -3 -7 -4
-4 -3 7 1 12 -3 19 -12 17 -9 -2 -11 3 -6 15 4 10 10 26 12 35 3 10 8 16 12
14 4 -3 8 6 9 20 2 22 -8 29 -31 25 -5 -1 -6 3 -3 7 3 5 17 7 31 5 29 -6 44
19 25 42 -11 13 -10 14 4 9 15 -6 15 -3 -1 25 -15 25 -19 27 -24 13 -4 -9 -4
-21 -1 -26 3 -5 0 -6 -6 -3 -11 7 -5 44 9 52 4 3 14 -3 21 -14 11 -16 15 -16
26 -5 7 8 8 14 3 14 -7 0 -7 9 -1 26 9 23 8 25 -10 19 -12 -4 -20 -2 -20 5 0
6 5 8 10 5 12 -7 30 36 36 85 11 99 14 122 20 131 3 5 0 8 -7 7 -14 -3 -16 6
-24 107 -4 60 -7 77 -18 105 -3 8 -8 24 -11 35 -15 54 -55 156 -70 180 -9 14
-14 30 -10 36 3 6 -5 23 -19 37 -14 15 -27 36 -29 47 -2 11 -9 19 -16 18 -7
-2 -9 4 -5 14 4 9 -1 21 -12 29 -10 8 -16 17 -12 20 9 9 -21 36 -33 29 -6 -3
-7 1 -4 10 4 10 -3 29 -15 46 -12 17 -23 38 -24 49 -1 10 -4 18 -7 18 -22 -2
-31 4 -26 17 3 9 0 15 -9 15 -7 0 -17 9 -20 20 -4 11 -11 17 -17 14 -6 -4 -8
-2 -5 4 10 15 -3 42 -19 42 -8 0 -14 7 -14 16 0 9 -5 12 -12 8 -9 -5 -8 -2 1
10 13 15 12 18 -8 23 -12 3 -20 12 -19 21 2 8 -3 17 -11 20 -8 3 -11 0 -7 -7
4 -6 3 -11 -3 -11 -15 0 -23 18 -11 25 8 5 7 11 -1 21 -8 10 -8 14 0 14 19 0
12 17 -9 23 -13 3 -18 10 -14 21 3 9 2 16 -4 16 -5 0 -13 11 -16 25 -4 14 -17
30 -30 36 -21 10 -32 39 -15 39 5 0 -4 12 -19 27 -15 15 -31 27 -35 25 -5 -1
-6 2 -2 8 3 5 2 10 -3 10 -6 0 -9 8 -8 17 0 10 -4 18 -11 18 -7 0 -18 6 -24
13 -7 6 -21 12 -31 12 -10 0 -17 3 -16 8 3 14 -14 62 -23 62 -4 0 -19 10 -31
23 -34 31 -46 31 -53 -3 -4 -17 -10 -28 -15 -25 -9 6 -9 45 0 45 3 0 6 8 7 18
1 15 -4 18 -23 14 -13 -2 -24 -8 -24 -13 0 -5 -7 -6 -15 -3 -8 4 -15 15 -15
25 0 14 -6 18 -24 17 -20 -2 -23 -6 -15 -19 7 -14 4 -17 -15 -15 -14 0 -24 5
-23 10 1 5 -4 11 -10 13 -7 3 -13 -2 -13 -11 0 -9 -8 -16 -20 -16 -11 0 -20
-5 -20 -11 0 -5 5 -7 11 -3 7 4 10 1 7 -7 -3 -8 -13 -14 -23 -14 -10 0 -20 6
-23 14 -3 9 0 11 8 6 9 -5 11 -4 6 4 -6 9 -16 7 -39 -8 -37 -24 -42 -47 -9
-43 13 2 22 -2 22 -10 0 -8 -9 -14 -20 -14 -11 0 -20 4 -20 8 0 4 -6 8 -12 8
-8 0 -13 -12 -13 -29 0 -22 3 -27 12 -19 7 5 18 8 25 6 8 -3 1 -11 -17 -21
-16 -9 -26 -16 -22 -17 4 0 2 -6 -5 -14 -9 -10 -15 -11 -20 -2 -4 6 -8 -2 -9
-19 0 -16 -3 -24 -6 -17 -6 16 -33 -3 -33 -23 0 -8 -5 -15 -11 -17 -5 -2 -7
-11 -3 -21 3 -10 13 -16 20 -13 18 7 18 3 -5 -22 -10 -12 -22 -18 -27 -14 -4
4 -3 0 4 -9 10 -14 10 -20 -3 -32 -8 -9 -11 -18 -6 -22 12 -7 10 -45 -2 -45
-4 0 -5 -5 -2 -11 4 -6 13 -8 20 -5 9 3 13 -2 12 -14 -1 -10 -4 -17 -8 -14
-12 7 -21 -34 -11 -53 5 -10 8 -28 6 -40 -2 -13 1 -23 8 -23 7 0 6 -6 -4 -17
-8 -10 -13 -27 -12 -38 9 -76 16 -143 18 -162 0 -11 4 -19 9 -16 15 9 6 -12
-15 -35 -19 -21 -20 -24 -5 -19 13 5 16 3 10 -6 -4 -6 -8 -18 -10 -26 -1 -8
-6 -17 -10 -20 -14 -10 -15 -74 -1 -83 9 -6 7 -10 -9 -14 -13 -4 -20 -10 -18
-15 9 -14 -37 -50 -50 -39 -7 5 -15 7 -18 3 -4 -3 -7 -1 -7 6 0 7 -4 10 -9 6
-6 -3 -14 3 -20 12 -10 17 -10 17 -11 1 0 -12 -5 -15 -16 -11 -11 4 -12 8 -4
13 16 10 -15 21 -36 13 -13 -5 -12 -8 6 -25 12 -11 19 -23 16 -26 -10 -10 -46
36 -40 51 7 19 -27 32 -38 15 -6 -10 -8 -8 -8 5 0 21 -7 22 -26 2 -14 -13 -14
-16 0 -21 19 -7 11 -24 -11 -24 -9 0 -13 3 -10 7 11 10 -13 33 -34 33 -11 0
-19 4 -19 10 0 16 -27 0 -39 -23 -7 -14 -10 -15 -6 -4 4 15 1 17 -18 12 -19
-5 -20 -4 -6 7 29 24 11 38 -39 32 -56 -6 -84 10 -88 52 l-3 29 15 -25 15 -25
-5 30 c-4 28 -3 29 11 10 14 -19 15 -19 8 5 -4 14 -10 32 -13 40 -3 8 4 4 15
-9 17 -21 21 -22 26 -8 4 11 -1 20 -13 27 -21 11 -27 40 -9 40 6 0 8 -7 5 -16
-4 -9 -1 -14 6 -12 6 2 13 15 15 29 2 13 6 31 10 39 10 25 12 40 3 35 -5 -3
-11 -1 -15 5 -3 5 0 10 9 10 11 0 14 11 11 45 -1 25 1 42 6 39 5 -3 9 0 9 5 0
6 -4 11 -10 11 -5 0 -1 9 9 19 13 13 18 30 16 52 -1 19 2 42 7 52 6 12 6 23
-2 32 -7 8 -8 20 -4 27 6 10 4 11 -7 3 -8 -5 -5 -1 8 10 24 22 32 41 11 28 -7
-4 -5 5 4 19 15 22 15 28 3 38 -7 6 -11 18 -8 25 3 8 -3 22 -12 32 -15 14 -15
18 -3 27 8 6 13 20 11 31 -2 11 -4 35 -4 53 -1 18 -6 38 -12 45 -7 7 -17 22
-23 32 -6 11 -21 25 -33 31 -12 6 -22 14 -22 18 3 27 -2 36 -19 36 -11 0 -28
8 -38 18 -23 23 -78 46 -91 37 -6 -3 -11 -2 -11 3 0 5 -7 9 -15 9 -13 0 -13
-3 1 -18 14 -16 14 -17 0 -15 -9 1 -16 4 -15 7 5 11 -23 49 -36 49 -8 0 -14 5
-12 11 1 6 -4 14 -12 17 -8 2 -11 0 -8 -5z m-179 -133 c7 -7 6 -10 -1 -10 -7
0 -14 4 -18 9 -3 6 -14 8 -25 6 -11 -2 -20 0 -20 6 0 12 49 4 64 -11z m179 -4
c-3 -4 4 -5 15 -2 11 4 23 2 27 -4 3 -6 11 -7 17 -4 6 4 9 1 6 -7 -6 -17 -37
-19 -57 -5 -11 8 -13 8 -7 -1 4 -7 2 -13 -4 -13 -6 0 -13 7 -16 15 -4 8 -10
15 -15 15 -4 0 -6 -7 -3 -15 4 -10 -4 -19 -22 -26 -16 -7 -32 -12 -36 -11 -5
1 -8 -5 -8 -13 0 -11 -7 -14 -26 -11 -27 5 -62 -18 -45 -29 6 -3 14 3 20 12 6
10 11 13 11 7 0 -15 -68 -79 -77 -71 -3 4 -14 -4 -23 -19 -10 -14 -21 -26 -26
-26 -5 0 -8 -4 -7 -8 1 -4 -5 -14 -14 -22 -12 -9 -15 -9 -9 -1 5 9 2 11 -9 7
-12 -5 -13 -9 -4 -20 7 -9 8 -14 1 -14 -16 0 -82 -70 -82 -88 0 -8 -3 -12 -6
-9 -4 3 -16 0 -27 -8 -14 -10 -25 -11 -38 -4 -21 11 -14 40 8 32 9 -4 14 0 13
8 -4 28 0 39 15 39 8 0 15 5 15 10 0 6 8 10 18 11 10 0 12 3 5 6 -9 3 -10 10
-3 24 8 15 7 17 -5 13 -9 -4 -15 0 -15 10 0 9 -6 13 -13 10 -8 -3 -20 3 -28
13 -13 16 -12 17 2 5 9 -7 21 -12 25 -11 5 1 11 0 14 -1 19 -7 40 -7 40 1 0 5
6 8 13 7 6 -2 11 3 10 10 -2 6 6 12 18 12 11 0 18 4 14 9 -3 5 0 13 6 17 8 5
8 8 0 13 -8 5 -5 15 9 31 17 20 24 22 45 12 13 -6 23 -17 21 -24 -1 -7 -1 -9
2 -5 2 4 11 2 20 -5 13 -11 14 -11 7 1 -6 11 -4 13 11 8 17 -6 17 -6 3 6 -15
11 -15 15 -3 31 7 11 11 23 7 29 -4 6 -1 7 8 1 24 -15 38 -13 32 4 -4 9 -2 13
4 9 6 -4 21 2 33 13 12 11 26 17 30 15 4 -3 10 1 13 8 3 8 19 13 40 13 19 -1
33 -5 30 -10z m1075 5 c11 -7 10 -10 -3 -15 -20 -7 -38 1 -30 15 7 11 16 11
33 0z m97 0 c3 -6 -3 -9 -14 -8 -11 0 -17 5 -15 9 7 11 22 10 29 -1z m-32 -31
c19 2 62 -57 63 -86 1 -27 -2 -31 -19 -26 -16 4 -19 2 -14 -11 4 -10 3 -17 -2
-17 -15 0 -33 29 -35 54 0 13 -4 22 -8 19 -13 -7 -9 4 6 16 10 9 13 6 12 -15
-1 -18 5 -28 16 -29 11 -2 15 2 11 11 -3 8 1 14 8 14 9 1 5 8 -10 20 -12 11
-27 17 -32 14 -5 -3 -9 0 -9 7 0 8 -4 8 -15 -1 -9 -7 -12 -16 -8 -19 12 -9 15
-39 4 -45 -5 -4 -16 0 -24 9 -13 13 -15 12 -20 -5 -3 -13 -1 -17 9 -13 10 4
12 0 8 -11 -3 -9 -10 -14 -14 -11 -5 3 -11 -4 -15 -15 -4 -11 -11 -17 -17 -14
-6 4 -5 10 3 15 8 5 10 9 4 9 -5 -1 -19 -8 -30 -17 -11 -9 -14 -14 -5 -11 8 3
21 -1 28 -8 9 -10 9 -14 1 -14 -6 0 -9 -8 -6 -19 3 -13 0 -18 -8 -15 -7 3 -16
0 -20 -6 -4 -6 -1 -9 7 -8 7 2 12 -3 11 -9 -5 -23 -5 -28 -4 -48 1 -16 3 -17
11 -5 5 8 12 11 16 8 4 -4 -8 -22 -27 -40 -19 -17 -28 -28 -21 -24 7 4 12 1
12 -9 0 -9 -4 -13 -10 -10 -5 3 -10 2 -10 -3 0 -6 8 -13 17 -16 14 -6 15 -9 4
-15 -7 -5 -15 -28 -17 -52 -7 -79 -9 -94 -17 -106 -5 -8 -3 -13 3 -13 7 0 10
-6 7 -14 -3 -7 0 -19 6 -25 6 -6 7 -11 3 -11 -5 0 -3 -6 3 -14 10 -12 6 -18
-21 -32 -32 -17 -32 -18 -10 -23 13 -3 23 -10 23 -16 -1 -5 5 -10 12 -11 26
-2 27 -5 18 -22 -7 -13 -6 -23 2 -31 9 -9 6 -13 -12 -18 -23 -6 -23 -7 -5 -21
14 -11 15 -13 3 -9 -13 4 -15 1 -11 -15 3 -14 1 -19 -7 -17 -7 3 -11 8 -9 12
6 15 -32 29 -46 18 -7 -6 -17 -7 -21 -3 -5 4 -5 1 -1 -5 5 -9 2 -11 -8 -7 -13
5 -13 9 -2 27 9 14 13 45 12 85 -3 62 -2 63 21 57 13 -3 23 -1 23 5 0 6 -4 8
-10 5 -5 -3 -10 -1 -10 4 0 14 17 14 26 0 4 -8 9 -7 15 2 6 10 1 15 -19 19
l-27 5 22 22 c17 17 18 23 7 27 -7 3 -13 2 -12 -2 5 -16 -23 -51 -37 -46 -12
5 -12 8 2 22 9 10 12 17 5 20 -20 6 0 32 24 32 13 0 24 4 24 10 0 5 -7 6 -17
3 -12 -5 -14 -3 -8 8 6 11 5 11 -5 2 -9 -8 -16 -9 -24 0 -16 14 -8 59 8 50 6
-3 3 3 -7 14 -12 14 -15 23 -8 28 7 4 5 15 -6 33 -14 22 -15 25 -2 15 13 -11
15 -7 13 33 -1 25 -5 52 -8 60 -3 8 5 23 17 35 20 19 21 20 2 14 -17 -6 -18
-5 -3 4 9 6 14 19 11 30 -3 10 0 22 6 25 6 4 9 1 6 -7 -3 -7 -1 -24 4 -38 9
-21 10 -22 10 -3 1 11 7 26 14 34 9 11 8 11 -7 0 -18 -14 -19 -13 -13 2 4 11
0 21 -11 27 -11 7 -12 11 -4 11 7 0 10 6 7 13 -4 6 0 4 8 -6 13 -15 16 -16 27
-2 10 12 11 24 2 52 -6 21 -9 39 -7 42 3 2 5 -1 5 -7 0 -7 5 -12 10 -12 6 0
10 7 10 15 0 8 4 15 8 15 5 0 17 8 28 18 22 19 40 25 67 24 11 0 17 7 18 21 0
19 1 20 8 4 4 -10 10 -18 14 -17z m101 9 c-3 -5 -10 -7 -15 -3 -5 3 -7 10 -3
15 3 5 10 7 15 3 5 -3 7 -10 3 -15z m-1474 1 c0 -5 -2 -10 -4 -10 -3 0 -8 5
-11 10 -3 6 -1 10 4 10 6 0 11 -4 11 -10z m1267 -22 c-3 -8 -6 -5 -6 6 -1 11
2 17 5 13 3 -3 4 -12 1 -19z m-937 4 c0 -5 18 -15 40 -22 22 -7 40 -17 40 -21
0 -5 -8 -6 -17 -2 -15 5 -14 3 2 -10 11 -8 23 -13 26 -11 4 2 14 -5 24 -16 10
-11 15 -20 10 -20 -4 0 -3 -6 3 -12 8 -11 9 -30 3 -72 0 -5 -9 -2 -18 5 -16
11 -16 11 -5 -1 7 -8 18 -15 25 -15 7 -1 11 -6 10 -13 -2 -7 2 -12 7 -12 6 0
1 -9 -10 -20 -12 -12 -18 -25 -15 -30 4 -6 -1 -10 -9 -10 -19 0 -21 16 -3 23
9 4 9 8 -3 16 -8 5 -19 7 -25 3 -5 -3 -4 2 4 11 7 9 11 26 8 37 -3 11 -1 23 4
26 5 3 9 10 9 15 0 6 -4 8 -8 5 -4 -2 -14 0 -22 6 -12 8 -12 9 2 4 10 -3 20
-1 23 4 4 6 -1 10 -10 10 -9 0 -13 5 -10 11 4 6 0 9 -10 7 -10 -2 -20 3 -23
11 -3 8 0 11 7 7 6 -4 11 -2 11 4 0 7 -8 9 -20 5 -16 -5 -20 -2 -20 15 0 12
-4 19 -9 15 -5 -3 -13 0 -17 6 -4 8 -3 9 4 5 7 -4 12 -2 12 3 0 6 -4 12 -10
12 -5 1 -14 3 -20 4 -5 1 -13 3 -16 4 -8 2 6 21 17 21 5 0 9 -4 9 -8z m-309
-51 c-8 -5 -10 -14 -6 -22 6 -11 5 -11 -5 -2 -14 12 -6 33 13 33 8 0 7 -3 -2
-9z m1379 2 c0 -5 -5 -15 -10 -23 -7 -12 -9 -10 -7 8 1 19 17 33 17 15z m63
-13 c3 -12 0 -20 -8 -20 -8 0 -11 8 -8 20 3 11 7 20 8 20 1 0 5 -9 8 -20z m34
-6 c0 -9 -11 -23 -24 -31 -20 -13 -21 -18 -11 -31 8 -10 9 -13 2 -9 -7 4 -14
1 -17 -7 -4 -9 2 -12 19 -10 13 1 31 -4 39 -13 10 -10 15 -11 15 -2 0 6 -7 17
-17 24 -11 8 -13 14 -5 19 7 4 12 2 12 -4 0 -6 5 -8 11 -5 7 5 4 14 -7 26 -9
10 -13 19 -8 19 19 0 54 -54 48 -73 -4 -13 -2 -17 5 -13 6 4 11 15 11 24 0 15
2 15 10 2 6 -10 6 -16 0 -18 -6 -2 -10 -8 -10 -13 0 -6 3 -8 8 -6 4 3 12 0 17
-7 7 -8 5 -16 -6 -28 -15 -14 -18 -14 -23 -2 -3 8 0 14 7 14 7 1 1 7 -12 14
-31 17 -59 -1 -32 -20 9 -7 19 -10 22 -8 4 2 9 -3 12 -11 9 -22 -30 -29 -58
-11 -14 9 -26 21 -26 26 -1 6 -3 15 -4 20 -1 6 -3 17 -4 25 0 8 -6 15 -12 15
-6 0 -9 -6 -6 -13 3 -8 -1 -14 -9 -14 -7 0 -11 4 -8 9 3 4 2 14 -3 21 -4 6 -8
17 -8 22 0 13 27 40 48 48 10 4 17 10 16 14 -2 11 0 23 4 23 2 0 4 -7 4 -16z
m-290 -66 c-3 -8 -6 -5 -6 6 -1 11 2 17 5 13 3 -3 4 -12 1 -19z m-1456 -71
c-10 -9 -11 -8 -5 6 3 10 9 15 12 12 3 -3 0 -11 -7 -18z m1863 -64 c-8 -8 -12
-19 -9 -24 4 -5 -3 -9 -14 -9 -12 0 -21 5 -21 11 0 5 -4 8 -8 5 -5 -3 -9 1 -9
9 0 8 4 12 9 9 4 -3 8 -1 8 5 0 5 13 9 29 9 26 -1 28 -3 15 -15z m26 -14 c0
-5 3 -8 8 -6 4 3 8 -9 9 -26 4 -50 6 -57 15 -57 5 0 6 -4 3 -10 -3 -5 -2 -10
4 -10 5 0 11 5 13 12 3 8 6 7 10 -3 9 -23 -30 -21 -42 2 -8 14 -18 18 -36 15
-31 -6 -40 14 -23 46 7 13 14 26 15 31 1 4 2 9 3 12 2 10 21 5 21 -6z m-1186
-20 c-3 -6 0 -15 7 -20 11 -7 11 -9 1 -9 -7 0 -10 -5 -6 -11 4 -7 0 -10 -11
-7 -19 3 -31 38 -14 38 6 0 7 5 4 10 -3 6 1 10 10 10 9 0 13 -5 9 -11z m583
-41 c-3 -8 -6 -5 -6 6 -1 11 2 17 5 13 3 -3 4 -12 1 -19z m-1257 -15 c0 -6
-40 -40 -62 -53 -12 -7 -16 -6 -14 5 1 8 6 18 11 22 4 4 5 2 1 -4 -4 -7 -2
-13 3 -13 10 0 12 5 11 25 -1 13 26 32 37 28 7 -3 13 -7 13 -10z m658 -14
c-10 -7 -9 -9 5 -9 17 0 17 -1 3 -16 -9 -8 -14 -19 -11 -24 3 -5 1 -12 -5 -15
-8 -5 -7 -12 2 -23 11 -13 11 -14 -2 -7 -13 8 -13 7 -1 -8 12 -16 8 -22 -12
-18 -5 1 -6 -3 -3 -8 4 -5 -2 -15 -11 -21 -15 -9 -14 -10 7 -4 21 6 23 5 13
-8 -7 -8 -10 -18 -6 -21 11 -12 13 -66 3 -72 -6 -4 -8 -11 -4 -16 3 -5 10 -6
16 -3 6 4 6 -2 -1 -15 -7 -11 -8 -21 -4 -22 4 0 -1 -4 -12 -8 -12 -5 -23 -4
-27 3 -4 6 -6 0 -6 -14 1 -14 10 -36 20 -49 21 -27 24 -45 6 -36 -7 4 -3 -2
10 -13 12 -11 17 -22 12 -24 -13 -4 15 -78 30 -78 5 0 6 -8 3 -17 -6 -15 -7
-15 -14 3 -7 18 -8 18 -8 1 -1 -17 -2 -17 -17 -2 -10 9 -25 14 -35 12 -10 -3
-23 1 -29 8 -8 9 -5 14 12 18 19 5 20 9 10 19 -11 11 -16 9 -28 -7 -8 -11 -13
-24 -10 -30 2 -5 -9 -10 -25 -10 -16 0 -29 3 -29 8 0 4 -15 8 -32 8 l-33 1 30
7 c21 5 30 12 29 24 -2 17 -1 17 19 0 18 -15 20 -15 8 -1 -13 17 -7 43 9 33 4
-3 10 1 13 9 3 8 -1 13 -10 12 -9 0 -18 5 -21 13 -3 9 0 11 8 6 9 -6 9 -3 0
15 -6 12 -9 24 -6 28 3 3 6 -1 6 -8 0 -7 3 -10 7 -7 3 4 11 2 18 -3 8 -6 18
-5 30 4 14 10 15 15 5 21 -8 5 -11 4 -7 -2 11 -18 -21 -23 -35 -6 -11 15 -11
16 6 10 15 -6 17 -5 8 6 -12 15 -10 49 6 89 8 20 17 26 32 23 11 -2 18 0 15 6
-4 5 -1 9 6 9 9 0 9 4 -1 15 -6 8 -9 19 -6 24 4 5 2 12 -3 15 -11 7 -9 45 3
64 4 7 5 19 2 27 -2 7 2 19 9 25 11 9 12 17 4 31 -6 13 -6 19 1 19 5 0 10 7
10 15 0 9 6 12 16 8 13 -5 13 -7 2 -14z m-774 -11 c4 3 4 -1 1 -10 -4 -9 -16
-15 -29 -14 -21 1 -24 7 -17 34 1 1 9 -2 20 -7 10 -6 21 -7 25 -3z m2059 -41
c3 -8 -1 -14 -9 -14 -8 0 -14 4 -14 9 0 5 -5 6 -12 2 -7 -4 -8 -3 -4 4 10 16
33 15 39 -1z m18 -40 c-5 -5 5 -24 25 -45 32 -34 33 -37 17 -54 -10 -11 -12
-18 -5 -18 7 0 12 5 12 10 0 6 7 10 16 10 8 0 12 -4 9 -10 -3 -5 -1 -10 4 -10
6 0 11 -8 11 -17 0 -15 -2 -16 -10 -3 -5 8 -20 15 -32 15 -16 0 -22 5 -20 18
2 9 -2 17 -7 17 -6 0 -7 7 -4 17 4 11 3 14 -5 9 -8 -4 -12 -1 -12 10 0 10 -9
27 -20 39 l-20 21 25 0 c15 0 21 -4 16 -9z m-471 -22 c0 -1 -9 -5 -19 -8 -13
-3 -18 -1 -14 9 4 10 33 10 33 -1z m437 -12 c0 -9 -4 -10 -14 -2 -7 6 -13 12
-13 14 0 1 6 2 13 2 8 0 14 -6 14 -14z m-567 -47 c0 -2 -8 -10 -17 -17 -16
-13 -17 -12 -4 4 13 16 21 21 21 13z m-1732 -20 c-7 -8 -15 -12 -17 -11 -5 6
10 25 20 25 5 0 4 -6 -3 -14z m977 -36 c-5 -8 -11 -8 -17 -2 -6 6 -7 16 -3 22
5 8 11 8 17 2 6 -6 7 -16 3 -22z m-958 5 c0 -8 -4 -12 -9 -9 -5 3 -6 10 -3 15
9 13 12 11 12 -6z m72 -36 c-5 -11 -14 -17 -20 -13 -7 4 -6 10 0 18 6 7 8 16
4 20 -4 4 0 4 10 1 13 -6 14 -11 6 -26z m-64 1 c3 -5 1 -10 -4 -10 -6 0 -11 5
-11 10 0 6 2 10 4 10 3 0 8 -4 11 -10z m2421 -5 c4 -8 10 -13 14 -10 5 3 6 -5
2 -17 -3 -14 -1 -19 6 -14 6 3 13 3 16 -2 2 -4 -4 -9 -15 -9 -11 -1 -19 5 -19
14 0 9 -7 25 -17 35 -10 11 -12 18 -4 18 6 0 14 -7 17 -15z m-2426 -20 c0 -1
-9 -5 -19 -8 -13 -3 -18 -1 -14 9 4 10 33 10 33 -1z m-108 -24 c-11 -10 -20
-13 -24 -7 -9 14 -3 21 21 23 18 2 19 1 3 -16z m1922 10 c3 -5 -2 -15 -12 -22
-9 -7 -14 -9 -10 -5 4 5 3 15 -3 23 -9 10 -8 13 4 13 9 0 18 -4 21 -9z m-1792
-44 c-6 -12 -12 -28 -14 -36 -2 -8 -15 -16 -29 -18 -13 -2 -19 0 -14 4 14 11
39 56 26 48 -6 -3 -11 -1 -11 5 0 7 8 9 20 5 15 -5 20 -2 20 11 0 10 3 14 7
11 3 -4 1 -17 -5 -30z m838 -8 c-7 -11 -9 -33 -5 -47 4 -18 3 -24 -3 -17 -17
16 -18 51 -3 68 19 23 24 21 11 -4z m130 0 c0 -6 -4 -7 -10 -4 -5 3 -10 11
-10 16 0 6 5 7 10 4 6 -3 10 -11 10 -16z m1536 -29 c8 0 14 -7 14 -16 0 -14
-3 -14 -15 -4 -13 11 -14 10 -9 -6 4 -10 11 -24 16 -30 5 -7 7 -18 6 -25 -2
-7 4 -13 12 -14 8 0 15 -7 16 -15 2 -36 5 -41 32 -51 26 -10 26 -11 8 -25 -11
-8 -14 -14 -8 -14 7 0 12 -4 12 -9 0 -5 -9 -7 -20 -4 -11 3 -20 12 -20 19 0 8
-6 14 -12 15 -10 0 -10 2 0 6 6 2 12 9 12 14 0 6 -7 6 -18 0 -14 -8 -19 -6
-19 5 0 8 6 13 14 10 28 -11 11 5 -27 24 -33 17 -40 25 -39 48 1 15 -2 36 -6
47 -6 17 -5 17 9 -3 10 -12 15 -26 12 -31 -3 -5 1 -11 9 -15 8 -3 17 0 21 6 4
7 3 8 -4 4 -8 -5 -12 0 -12 13 0 12 -5 21 -11 21 -6 0 -9 9 -6 20 3 14 -1 24
-14 31 -11 5 -16 15 -13 21 5 7 14 1 26 -15 11 -15 26 -27 34 -27z m-231 10
c1 -10 -2 -17 -6 -14 -4 2 -7 13 -6 24 2 23 10 17 12 -10z m-430 11 c7 -12
-12 -24 -25 -16 -11 7 -4 25 10 25 5 0 11 -4 15 -9z m-230 -52 c11 -17 -1 -21
-15 -4 -8 9 -8 15 -2 15 6 0 14 -5 17 -11z m-1660 -9 c-13 -6 -15 -9 -5 -9 13
-1 13 -2 0 -11 -8 -5 -11 -10 -7 -10 5 0 1 -7 -8 -17 -9 -9 -15 -26 -13 -38 3
-11 -1 -26 -7 -32 -9 -8 -16 -2 -29 24 -9 19 -12 31 -6 28 17 -11 42 15 30 30
-8 10 -8 15 1 21 8 4 9 3 5 -4 -4 -7 -3 -12 2 -12 15 0 22 13 12 24 -6 8 -1
12 18 13 24 1 24 1 7 -7z m1785 -34 c0 -8 6 -16 14 -19 12 -5 14 -25 6 -47 -1
-3 -2 -9 -1 -13 1 -5 -4 -5 -10 -1 -9 5 -10 2 -6 -9 3 -10 2 -17 -4 -17 -6 0
-9 -8 -8 -17 3 -32 -1 -44 -11 -38 -5 3 -10 -3 -10 -14 0 -11 -5 -23 -10 -26
-6 -4 -8 -10 -5 -15 3 -5 1 -11 -5 -15 -5 -3 -10 -15 -10 -26 0 -10 -6 -19
-12 -19 -10 0 -10 -2 0 -8 9 -6 6 -15 -13 -32 -23 -22 -25 -22 -19 -5 7 18 6
19 -9 6 -10 -8 -21 -11 -24 -7 -4 4 -1 11 7 16 10 7 11 10 3 10 -16 0 -16 20
-2 57 7 15 13 36 14 45 1 10 10 28 21 40 14 16 14 19 2 10 -15 -12 -14 -7 3
38 11 28 16 56 13 62 -4 7 -2 8 4 4 7 -4 12 -2 12 4 0 12 39 49 53 50 4 0 7
-6 7 -14z m-1830 -10 c0 -3 -4 -8 -10 -11 -5 -3 -10 -1 -10 4 0 6 5 11 10 11
6 0 10 -2 10 -4z m2580 -47 c0 -5 4 -8 9 -5 5 4 7 -3 4 -14 -4 -13 1 -26 13
-35 11 -8 15 -15 9 -15 -5 0 5 -8 24 -16 19 -8 40 -13 46 -10 7 2 12 -2 12
-10 0 -8 -4 -14 -8 -14 -5 0 -6 -7 -3 -15 4 -8 1 -22 -6 -30 -6 -8 -9 -18 -7
-22 3 -5 -3 -9 -14 -9 -23 0 -23 3 -4 23 8 8 13 19 10 24 -4 5 -2 9 3 9 5 0 9
6 9 13 0 7 -8 13 -18 13 -13 0 -15 -3 -7 -13 7 -8 7 -13 0 -13 -5 0 -15 7 -22
15 -10 12 -16 13 -27 4 -7 -7 -16 -9 -20 -5 -3 3 -2 6 3 6 5 0 10 9 11 21 1
15 -1 18 -11 10 -10 -8 -12 -3 -12 22 0 17 -4 42 -8 55 -4 14 -3 22 3 22 6 0
11 -5 11 -11z m-2604 -36 c4 -31 -25 -103 -41 -103 -5 0 -23 8 -38 19 -23 15
-25 20 -14 29 8 7 17 9 20 6 3 -3 11 -3 17 1 8 5 8 10 0 20 -9 11 -6 20 15 41
29 29 36 27 41 -13z m-170 2 c0 -14 -3 -25 -7 -25 -3 0 -6 11 -6 25 0 14 3 25
6 25 4 0 7 -11 7 -25z m1336 -43 c8 -9 7 -11 -6 -6 -10 4 -16 16 -15 33 1 20
2 22 6 6 3 -11 10 -26 15 -33z m988 34 c-10 -13 -40 -12 -40 1 0 3 7 3 15 0 8
-4 17 -2 20 3 4 6 9 10 12 10 3 0 0 -6 -7 -14z m-2339 -49 c-10 -9 -11 -8 -5
6 3 10 9 15 12 12 3 -3 0 -11 -7 -18z m1394 14 c3 -5 1 -12 -5 -16 -5 -3 -10
1 -10 9 0 18 6 21 15 7z m122 -41 c-3 -11 -1 -18 4 -14 5 3 9 0 9 -5 0 -6 5
-11 11 -11 6 0 7 5 2 13 -11 18 -13 38 -2 31 5 -3 6 -10 3 -16 -5 -8 -1 -9 10
-5 14 6 15 4 5 -14 -6 -12 -7 -19 -1 -15 5 3 15 -1 22 -9 14 -16 40 -20 40 -6
0 5 9 7 20 4 11 -3 20 -10 20 -15 0 -6 -7 -7 -16 -4 -9 4 -22 2 -29 -4 -10 -8
-15 -8 -20 1 -6 8 -10 7 -17 -2 -8 -11 -9 -10 -4 4 3 11 0 17 -10 17 -9 0 -12
-5 -8 -12 4 -7 4 -10 -1 -6 -4 4 -14 1 -21 -7 -20 -20 -17 -27 5 -15 12 6 22
6 25 1 3 -5 16 -7 29 -4 22 5 22 5 2 -12 -17 -14 -17 -16 -2 -11 9 3 17 1 17
-4 0 -6 -6 -10 -12 -10 -8 0 -9 -3 -3 -8 16 -12 16 -32 0 -26 -13 6 -19 18
-12 27 1 2 -4 11 -12 20 -14 18 -47 24 -36 8 3 -5 1 -13 -5 -16 -6 -4 -9 -3
-8 2 4 13 -22 53 -34 53 -7 0 -6 -5 2 -15 10 -12 10 -15 -3 -15 -18 0 -16 28
4 42 14 10 10 9 -38 -8 -15 -5 -14 -4 2 9 11 9 16 17 11 17 -6 0 -1 6 10 14
10 8 20 19 20 25 2 19 4 21 15 21 6 0 9 -9 6 -20z m-1408 -14 c10 -12 8 -19
-7 -34 -11 -11 -18 -23 -16 -25 3 -3 1 -8 -5 -12 -10 -6 -16 8 -12 28 1 5 -3
6 -8 3 -5 -4 -12 -2 -15 3 -8 13 19 21 33 10 7 -6 8 -5 2 2 -10 12 -4 39 9 39
4 0 13 -6 19 -14z m185 -16 c-6 -6 -10 -3 -10 10 0 13 4 16 10 10 7 -7 7 -13
0 -20z m650 19 c-2 -5 9 -6 26 -4 16 2 30 0 30 -5 0 -5 9 -7 20 -5 11 2 18 0
15 -6 -9 -13 9 -11 23 3 8 8 12 8 12 1 0 -6 8 -10 18 -9 10 0 16 -6 16 -16 -2
-22 5 -23 21 -1 7 9 17 13 24 9 19 -12 -6 -36 -38 -37 -14 0 -35 -4 -46 -8
-14 -6 -24 -3 -32 8 -6 9 -15 12 -19 8 -5 -4 -2 -12 6 -17 8 -6 12 -10 8 -10
-3 0 -15 -3 -25 -6 -15 -5 -15 -4 -3 5 8 6 10 11 4 11 -6 0 -11 7 -11 15 0 8
6 15 13 15 7 0 16 4 19 10 3 5 0 7 -8 4 -8 -3 -19 2 -26 10 -9 11 -18 13 -31
6 -9 -5 -21 -6 -26 -2 -5 4 -5 3 -1 -2 11 -14 37 -16 37 -3 0 8 3 8 10 1 12
-12 3 -44 -11 -44 -5 0 -9 -5 -9 -11 0 -5 5 -7 10 -4 6 4 10 3 9 -2 -3 -19 2
-34 10 -28 5 3 13 0 17 -6 4 -8 3 -9 -4 -5 -7 4 -12 1 -12 -6 0 -8 -3 -9 -8
-3 -4 6 -16 11 -27 12 -19 1 -19 1 -2 -12 16 -12 16 -13 -8 -17 -20 -4 -23 -3
-14 8 6 8 8 14 4 14 -4 0 -2 7 5 15 8 10 9 15 2 15 -6 0 -16 -8 -21 -17 -12
-20 -14 -13 -5 11 3 9 11 16 18 16 16 0 38 38 26 45 -6 3 -10 1 -10 -5 0 -8
-4 -7 -13 2 -16 17 -17 55 0 55 7 0 10 -4 7 -8z m421 -16 c-22 -15 -43 -28
-47 -28 -3 0 -10 -4 -15 -9 -5 -5 -3 -6 5 -2 6 4 12 2 12 -3 0 -6 -7 -11 -15
-11 -8 0 -15 4 -15 9 0 5 -3 17 -6 26 -5 13 -2 15 20 9 18 -4 27 -2 32 9 3 9
12 13 20 10 8 -3 14 0 14 6 0 6 8 11 17 11 11 0 3 -10 -22 -27z m110 11 c-11
-8 -19 -20 -17 -25 1 -6 -1 -8 -6 -5 -5 3 -20 -6 -34 -19 -14 -13 -29 -21 -32
-18 -3 4 -6 2 -6 -3 0 -5 -11 -10 -25 -10 -14 -1 -25 2 -25 7 0 5 11 9 24 9
14 0 27 4 30 9 3 5 -8 7 -24 6 -23 -2 -28 0 -20 10 6 7 28 11 50 10 29 -2 40
2 40 12 0 7 10 18 23 23 34 14 44 11 22 -6z m129 0 c9 -3 16 -10 16 -15 0 -7
-18 -7 -48 0 -4 1 8 21 13 21 2 0 10 -3 19 -6z m46 -15 c0 -5 -4 -9 -10 -9 -5
0 -10 7 -10 16 0 8 5 12 10 9 6 -3 10 -10 10 -16z m1193 3 c-2 -6 5 -9 15 -6
16 5 16 4 -1 -9 -13 -11 -16 -22 -11 -41 3 -14 10 -23 15 -20 5 3 6 10 3 16
-4 6 1 8 16 3 17 -5 21 -4 18 6 -7 18 9 49 25 49 7 0 8 -3 2 -8 -5 -4 -11 -17
-12 -30 -3 -21 -1 -22 20 -11 19 11 21 10 9 -3 -10 -13 -10 -17 0 -21 7 -3 -7
-5 -31 -4 -36 2 -44 -1 -47 -17 -1 -10 -8 -22 -14 -26 -13 -8 16 -25 37 -21 6
1 14 -3 18 -9 6 -10 -7 -14 -34 -11 -7 2 -10 -3 -6 -9 4 -6 14 -9 23 -5 8 3
20 0 25 -7 6 -9 7 -8 3 5 -3 9 -1 17 4 17 6 0 10 5 10 11 0 5 -4 7 -10 4 -5
-3 -10 -1 -10 5 0 6 -8 10 -17 9 -31 -3 -36 1 -23 16 10 12 16 13 27 3 11 -9
13 -8 11 2 -2 9 8 14 27 16 17 1 24 0 18 -3 -17 -6 -16 -20 2 -27 8 -3 14 -2
14 2 -1 4 -1 14 0 22 1 13 3 13 10 1 12 -18 4 -39 -17 -44 -12 -3 -10 -5 6 -6
20 -1 24 -6 21 -27 0 -4 5 -11 13 -16 10 -8 9 -9 -4 -4 -23 7 -35 -14 -17 -28
8 -6 13 -20 11 -30 -3 -14 0 -17 12 -13 23 9 31 -12 10 -28 -16 -11 -19 -29
-20 -127 -1 -65 -7 -124 -13 -136 -7 -12 -9 -22 -5 -22 3 0 1 -6 -5 -14 -8
-10 -9 -16 -1 -21 19 -12 2 -21 -38 -20 -22 0 -38 -3 -36 -7 2 -3 0 -9 -6 -13
-16 -10 -12 -32 8 -40 14 -5 15 -4 5 6 -16 16 -17 33 -1 23 7 -4 8 -3 4 4 -4
7 -2 12 3 12 6 0 11 -10 11 -22 1 -20 2 -20 15 7 7 17 14 23 14 14 1 -8 -6
-24 -14 -35 -18 -24 -19 -38 -2 -28 8 5 7 2 -2 -10 -11 -13 -16 -14 -22 -4 -6
10 -6 -27 0 -49 1 -2 1 -6 0 -9 0 -4 5 -10 12 -15 11 -6 10 -9 -4 -15 -23 -8
-50 3 -42 18 4 7 -3 2 -14 -12 -11 -14 -21 -28 -21 -31 0 -3 -7 -6 -15 -6 -11
0 -10 5 6 20 21 20 21 21 3 36 -20 17 -24 38 -10 59 5 9 12 10 20 3 9 -8 11
-2 8 24 -3 22 0 35 7 35 6 0 11 5 11 11 0 5 -6 7 -12 3 -7 -4 -5 2 5 13 9 11
14 23 10 26 -3 4 -1 7 5 7 6 0 11 17 10 38 0 20 2 57 5 82 2 25 -1 51 -6 58
-7 9 -6 11 7 6 10 -4 15 -13 12 -20 -3 -9 0 -11 11 -7 9 4 14 2 10 -3 -3 -6 2
-10 12 -11 10 -1 18 4 18 11 0 7 -7 13 -16 12 -11 -1 -17 9 -20 29 -2 22 -5
25 -10 13 -4 -12 -10 -15 -20 -8 -12 7 -12 11 -2 23 9 12 9 17 0 23 -8 5 -9 3
-4 -6 5 -8 4 -11 -2 -7 -9 6 -10 22 -4 61 0 5 7 4 14 -2 7 -6 23 -8 36 -5 17
4 19 8 9 14 -10 7 -9 9 5 9 19 0 23 25 5 36 -8 5 -9 1 -5 -12 7 -19 7 -19 -8
0 -8 10 -12 22 -10 26 5 8 -36 22 -44 15 -2 -3 1 -5 7 -5 7 0 12 -5 12 -11 0
-6 -7 -8 -16 -5 -8 3 -12 2 -9 -4 3 -6 2 -10 -3 -10 -6 0 -13 7 -16 16 -3 8
-11 12 -17 8 -8 -4 -9 -3 -5 4 4 6 13 9 21 5 8 -3 15 0 15 6 0 6 -4 11 -10 11
-5 0 -10 5 -10 11 0 8 4 8 14 0 10 -9 15 -8 19 2 3 7 -4 19 -14 26 -11 6 -17
15 -14 20 2 5 -2 14 -10 21 -12 10 -13 16 -4 26 10 13 6 18 -13 15 -3 0 -5 7
-3 17 1 9 -2 25 -6 34 -6 10 -5 19 1 23 5 3 10 11 10 17 0 6 -7 5 -17 -3 -15
-13 -15 -12 -2 9 14 22 36 25 32 4z m-1433 -2 c-19 -13 -30 -13 -30 0 0 6 10
10 23 10 18 0 19 -2 7 -10z m304 -14 c21 5 26 3 25 -12 0 -11 -3 -14 -6 -6 -2
6 -9 12 -14 12 -6 0 -8 -4 -5 -9 9 -13 -19 -7 -38 8 -9 7 -16 19 -16 25 0 6 7
3 14 -7 10 -13 21 -16 40 -11z m-1827 -18 c-3 -8 -6 -5 -6 6 -1 11 2 17 5 13
3 -3 4 -12 1 -19z m1289 -12 c-25 -26 -37 -24 -13 2 10 10 14 22 10 26 -4 4 0
4 9 1 14 -6 13 -9 -6 -29z m77 -15 c-2 -3 -8 0 -15 7 -8 8 -17 6 -36 -6 -21
-13 -24 -14 -20 -2 3 8 11 14 17 13 11 -3 16 11 11 32 -1 5 9 -1 22 -15 13
-14 23 -27 21 -29z m979 17 c-8 -8 -9 -4 -5 13 4 13 8 18 11 10 2 -7 -1 -18
-6 -23z m-972 12 c0 -5 -2 -10 -4 -10 -3 0 -8 5 -11 10 -3 6 -1 10 4 10 6 0
11 -4 11 -10z m22 -15 c3 -13 1 -22 -3 -19 -9 5 -13 44 -5 44 2 0 6 -11 8 -25z
m-1237 -5 c-3 -4 1 -11 7 -13 8 -3 6 -6 -5 -6 -10 -1 -16 -5 -13 -10 3 -5 -1
-12 -9 -15 -14 -5 -14 -2 -1 23 9 16 12 32 8 36 -4 5 -1 5 6 1 7 -4 10 -11 7
-16z m570 -16 c-4 -30 -2 -34 10 -24 7 6 13 17 11 23 -1 7 -1 9 1 4 3 -4 9 -5
14 -1 5 3 8 0 7 -8 -2 -7 5 -12 14 -12 10 1 16 -3 15 -10 -1 -6 3 -10 8 -9 6
1 12 -8 12 -20 2 -21 1 -21 -19 3 l-20 25 16 -27 c8 -14 12 -28 7 -30 -5 -2
-2 -10 7 -18 14 -13 15 -13 10 0 -3 8 0 20 7 27 10 9 17 7 34 -11 l21 -23 -22
2 c-13 1 -29 -2 -35 -8 -7 -5 -13 -6 -13 -2 0 4 -6 2 -14 -4 -10 -9 -15 -8
-19 3 -4 11 -1 13 11 9 14 -6 15 -5 2 9 -13 13 -16 13 -29 1 -12 -13 -12 -16
0 -25 11 -7 8 -9 -8 -5 -13 3 -23 1 -23 -5 0 -5 -5 -6 -10 -3 -6 4 -8 15 -5
26 4 11 2 19 -4 19 -19 0 -12 17 9 23 11 3 20 11 20 17 0 9 -3 10 -14 1 -10
-9 -16 -8 -26 4 -7 8 -18 15 -24 14 -7 0 -6 -2 2 -6 6 -2 12 -12 12 -21 0 -13
-2 -13 -14 3 -7 10 -11 27 -8 37 4 17 6 17 22 3 16 -14 18 -14 24 0 3 9 2 13
-4 10 -6 -4 -7 2 -4 12 4 14 3 15 -4 4 -7 -9 -12 -10 -16 -2 -4 6 -12 8 -18 5
-7 -4 -8 -2 -4 5 4 6 18 9 32 7 13 -3 24 0 24 5 0 5 2 9 5 9 3 0 3 -16 0 -36z
m801 -8 c0 -14 -5 -21 -9 -17 -4 4 -5 15 -1 24 9 24 12 21 10 -7z m-1476 10
c0 -3 -4 -8 -10 -11 -5 -3 -10 -1 -10 4 0 6 5 11 10 11 6 0 10 -2 10 -4z
m1198 -21 c-3 -3 -9 2 -12 12 -6 14 -5 15 5 6 7 -7 10 -15 7 -18z m182 15 c0
-5 -2 -10 -4 -10 -3 0 -8 5 -11 10 -3 6 -1 10 4 10 6 0 11 -4 11 -10z m459
-26 c-9 -11 -8 -14 5 -14 9 0 16 7 16 15 0 8 5 15 10 15 14 0 12 -16 -3 -28
-13 -11 -143 -9 -155 2 -3 3 7 6 22 6 16 0 25 4 21 10 -3 6 3 10 14 10 23 0
28 -15 9 -23 -8 -4 -7 -6 4 -6 27 -1 48 10 48 26 0 8 5 11 10 8 8 -5 7 -11 -1
-21z m115 10 c3 -8 2 -12 -4 -9 -6 3 -10 10 -10 16 0 14 7 11 14 -7z m-30 -6
c-3 -4 -9 -8 -15 -8 -5 0 -9 4 -9 8 0 5 7 9 15 9 8 0 12 -4 9 -9z m-694 -7 c0
-5 -7 -12 -16 -15 -14 -5 -15 -4 -4 9 14 17 20 19 20 6z m714 -9 c3 -5 -1 -9
-9 -9 -8 0 -12 4 -9 9 3 4 7 8 9 8 2 0 6 -4 9 -8z m-1866 -28 c-7 -15 -14 -21
-16 -15 -5 16 5 41 17 41 7 0 6 -10 -1 -26z m1307 17 c3 -5 2 -12 -3 -15 -5
-3 -9 1 -9 9 0 17 3 19 12 6z m-564 -18 c13 -16 12 -17 -3 -4 -10 7 -18 15
-18 17 0 8 8 3 21 -13z m914 -3 c-27 -12 -35 -12 -35 0 0 6 12 10 28 9 24 0
25 -1 7 -9z m-1186 -13 c6 -8 8 -17 4 -20 -3 -4 -1 -7 6 -7 7 0 9 -4 6 -10 -3
-5 6 -21 21 -35 23 -21 25 -28 14 -38 -10 -9 -11 -9 -6 1 4 6 3 12 -3 12 -5 0
-11 -5 -13 -12 -5 -13 -88 -19 -88 -6 0 4 -8 8 -17 9 -10 0 -13 3 -6 5 7 3 10
13 7 22 -3 9 1 6 9 -7 8 -13 17 -19 20 -14 4 6 4 13 0 17 -4 3 -7 17 -8 30 0
19 2 22 12 14 12 -10 17 -4 14 15 0 4 7 7 17 7 15 1 15 2 -2 15 -11 8 -15 15
-9 15 6 0 16 -6 22 -13z m1448 -9 c-3 -8 -6 -5 -6 6 -1 11 2 17 5 13 3 -3 4
-12 1 -19z m-197 -8 c-7 -4 -23 -7 -36 -5 -20 2 -22 -2 -21 -31 2 -29 12 -39
12 -11 0 11 35 14 98 8 24 -2 22 -21 -3 -21 -11 0 -20 6 -20 13 0 8 -3 8 -9
-2 -5 -8 -22 -14 -38 -15 -17 -1 -27 -6 -25 -14 1 -9 -2 -10 -16 -1 -18 11
-26 39 -12 39 4 0 5 13 2 28 -4 27 -3 28 38 24 26 -3 37 -7 30 -12z m227 -70
c0 -37 -8 -38 -24 -4 -10 22 -10 25 3 20 7 -3 14 -1 14 4 0 6 2 10 3 10 2 0 4
-13 4 -30z m-117 4 c0 -14 -3 -14 -15 -4 -8 7 -15 14 -15 16 0 2 7 4 15 4 8 0
15 -7 15 -16z m604 4 c-5 -8 -2 -9 10 -5 10 4 15 3 11 -3 -7 -12 -35 -13 -35
-2 0 9 10 22 17 22 2 0 1 -5 -3 -12z m-425 -24 c-13 -7 -27 -10 -31 -8 -5 3
-8 1 -8 -5 0 -15 18 -23 25 -11 4 6 11 7 17 4 6 -4 14 -1 18 6 5 8 10 -3 15
-29 4 -23 4 -45 1 -48 -9 -9 -35 29 -36 50 0 10 -4 16 -10 12 -5 -3 -7 -13 -4
-23 5 -14 4 -15 -5 -2 -5 8 -13 11 -17 7 -9 -8 15 -39 26 -32 4 3 13 -2 20
-10 10 -12 10 -15 -1 -16 -9 0 -10 -2 -2 -5 6 -3 25 2 41 10 29 15 30 15 28
-8 -2 -12 -6 -28 -10 -34 -3 -6 3 -16 14 -22 16 -9 20 -8 20 5 0 9 -4 13 -10
10 -5 -3 -10 -1 -10 4 0 6 5 11 11 11 5 0 7 5 3 12 -4 7 -3 8 5 4 6 -4 9 -12
6 -17 -4 -5 -1 -9 5 -9 6 0 8 -5 4 -11 -3 -6 -1 -14 5 -18 6 -4 9 -15 5 -24
-7 -18 -24 -23 -24 -7 0 6 5 10 11 10 5 0 7 5 3 11 -4 8 -10 6 -17 -6 -7 -14
-5 -21 9 -32 19 -14 19 -14 -13 -18 -19 -2 -21 2 -17 34 3 32 2 34 -10 18 -9
-12 -16 -14 -21 -8 -3 6 -2 11 3 11 5 0 9 7 9 15 0 10 -6 13 -19 9 -13 -4 -16
-1 -12 10 3 9 12 12 22 8 14 -5 14 -4 2 9 -7 8 -21 15 -29 15 -9 -1 -17 3 -18
8 -3 19 -28 25 -35 8 -6 -16 -7 -16 -7 1 -1 10 -8 32 -18 50 -15 30 -15 31 0
18 19 -15 21 -12 8 21 -8 23 -7 24 20 20 18 -3 29 0 29 7 0 7 5 9 11 5 8 -4 3
-11 -12 -20z m-219 -4 c0 -5 -4 -10 -9 -10 -6 0 -13 5 -16 10 -3 6 1 10 9 10
9 0 16 -4 16 -10z m140 -22 c0 -19 -16 -5 -17 14 -2 18 0 20 7 8 5 -8 10 -18
10 -22z m-1555 12 c3 -6 -1 -7 -9 -4 -18 7 -21 14 -7 14 6 0 13 -4 16 -10z
m2529 -5 c11 -28 -10 -56 -28 -37 -11 10 -30 9 -38 -3 -5 -6 -8 -6 -8 2 0 6 7
19 16 27 14 14 17 14 30 1 9 -8 18 -15 22 -15 3 0 1 5 -6 12 -7 7 -12 16 -12
20 0 14 18 9 24 -7z m-2573 -9 c-9 -11 -9 -15 1 -20 7 -3 1 -3 -13 0 -15 3
-30 1 -33 -5 -4 -6 -2 -11 4 -11 6 0 8 -5 4 -11 -4 -7 -9 -8 -13 -1 -3 5 -14
11 -25 13 -17 4 -17 5 3 23 22 20 22 20 16 0 -6 -17 -5 -17 7 -3 7 9 18 14 25
12 6 -2 14 1 18 6 3 6 9 11 12 11 3 0 0 -6 -6 -14z m1523 3 c-4 -7 0 -9 14 -5
25 8 38 -10 22 -29 -15 -18 1 -20 17 -4 9 9 11 7 7 -7 -6 -24 -44 -27 -44 -4
0 9 6 22 13 29 10 11 9 13 -6 7 -22 -7 -40 1 -32 15 4 5 8 9 11 9 3 0 2 -5 -2
-11z m-1615 -15 c-11 -14 -11 -18 3 -28 12 -9 15 -20 11 -36 -6 -22 -7 -23
-14 -4 -7 19 -8 19 -9 -1 l-1 -20 -9 20 c-7 16 -9 16 -9 4 -1 -19 -31 -35 -31
-16 0 9 -2 9 -9 -1 -6 -11 -10 -10 -19 0 -8 11 -5 21 14 43 l25 30 -18 -30
-17 -30 23 20 24 20 -7 -25 c-6 -21 -5 -22 4 -7 6 9 18 17 26 17 8 0 12 5 9
10 -4 6 -11 8 -16 5 -5 -4 -9 -1 -9 4 0 6 0 14 0 19 0 4 4 7 9 7 5 0 13 3 17
8 14 14 16 7 3 -9z m136 -2 c-3 -3 -11 0 -18 7 -9 10 -8 11 6 5 10 -3 15 -9
12 -12z m1350 0 c-3 -3 0 -11 6 -19 17 -20 5 -16 -14 5 -15 16 -15 19 -2 19 8
0 13 -3 10 -5z m355 -26 c0 -3 -4 -8 -10 -11 -5 -3 -10 -1 -10 4 0 6 5 11 10
11 6 0 10 -2 10 -4z m-2076 -63 c-1 -33 17 -57 29 -39 5 6 6 1 2 -11 -4 -14
-2 -23 4 -23 6 0 11 5 11 12 0 6 7 3 15 -8 14 -18 14 -18 8 4 -3 12 -9 22 -14
22 -5 0 -9 5 -9 12 0 9 3 9 12 0 15 -15 31 -16 22 0 -4 7 -3 8 5 4 7 -4 19 2
30 15 14 17 20 19 26 9 5 -8 4 -11 -3 -6 -6 4 -18 -6 -26 -23 -20 -37 -65 -86
-89 -94 -18 -7 -15 -27 4 -27 6 0 7 5 4 10 -3 6 -1 10 4 10 16 0 13 -20 -4
-26 -9 -4 -14 -14 -13 -22 3 -16 -1 -18 -38 -21 -12 -1 -14 -4 -6 -14 7 -8 6
-18 -4 -32 -15 -19 -15 -18 -8 9 5 23 4 27 -7 22 -8 -4 1 6 19 23 32 30 38 58
17 73 -6 5 -4 8 5 9 8 1 21 2 29 3 8 0 16 7 18 13 3 9 -5 11 -29 7 -30 -6 -32
-5 -14 8 11 9 16 20 12 27 -6 9 -12 7 -23 -6 -13 -17 -13 -16 -3 5 8 16 8 22
-1 22 -6 0 -9 7 -5 15 3 8 1 15 -4 15 -5 0 -7 7 -4 15 10 25 30 17 28 -12z
m1936 -10 c0 -7 -39 17 -46 28 -3 6 5 3 20 -6 14 -10 26 -19 26 -22z m1120 13
c0 -3 -4 -8 -10 -11 -5 -3 -10 -1 -10 4 0 6 5 11 10 11 6 0 10 -2 10 -4z
m-1030 -10 c0 -3 -4 -8 -10 -11 -5 -3 -10 -1 -10 4 0 6 5 11 10 11 6 0 10 -2
10 -4z m1030 -31 c10 -12 10 -15 -2 -15 -8 0 -15 7 -15 15 0 8 1 15 2 15 2 0
8 -7 15 -15z m-885 -45 c4 -12 11 -17 18 -14 7 4 9 4 5 -1 -5 -5 1 -15 13 -23
11 -8 18 -20 15 -27 -2 -7 -1 -17 2 -21 4 -5 0 -2 -9 8 -17 18 -34 13 -22 -6
4 -6 9 -20 10 -31 2 -18 2 -18 -8 -3 -5 10 -9 21 -9 24 1 4 -4 10 -12 15 -7 5
-14 13 -14 19 -1 5 -2 11 -4 13 -1 1 -3 17 -4 35 -3 36 9 43 19 12z m-109 -15
c-1 -8 -5 -17 -8 -21 -5 -4 -4 16 1 34 3 9 9 -1 7 -13z m32 -52 c-6 -7 -12
-13 -13 -13 -2 0 -5 6 -8 13 -3 7 3 13 14 13 13 0 15 -3 7 -13z m171 -37 c-3
-3 -11 5 -18 17 -13 21 -12 21 5 5 10 -10 16 -20 13 -22z m16 -26 c3 0 3 5 -1
12 -4 7 -3 8 5 4 17 -11 5 -23 -22 -23 -13 0 -24 5 -24 13 0 9 5 10 18 3 10
-5 20 -9 24 -9z m-68 -19 c7 7 13 7 13 3 0 -5 -10 -15 -22 -23 -13 -7 -20 -10
-16 -6 4 5 2 15 -4 24 -10 13 -10 14 2 4 10 -9 17 -10 27 -2z m82 -22 c-12
-11 -24 -17 -27 -14 -8 8 30 45 40 39 5 -3 -1 -14 -13 -25z m-39 11 c0 -5 -4
-10 -10 -10 -5 0 -10 5 -10 10 0 6 5 10 10 10 6 0 10 -4 10 -10z m49 -41 c-20
-12 -2 -11 22 1 11 6 19 7 18 3 -8 -46 14 -86 24 -45 4 13 5 12 6 -4 1 -21 26
-40 46 -35 6 1 4 -3 -3 -11 -11 -11 -14 -10 -22 2 -7 10 -10 11 -10 3 0 -7 -5
-13 -11 -13 -5 0 -8 4 -5 9 3 5 -3 11 -14 14 -15 4 -20 14 -21 39 -1 19 -3 25
-6 14 -4 -15 -7 -16 -14 -5 -8 12 -11 12 -19 -1 -8 -11 -9 -9 -6 12 6 37 18
57 24 39 2 -7 -2 -17 -9 -22z m-2363 -8 c0 -11 -4 -17 -8 -15 -4 3 -8 -2 -8
-12 0 -13 -3 -14 -14 -4 -12 9 -15 8 -14 -7 1 -31 -6 -48 -25 -55 -10 -4 -15
-13 -12 -18 4 -6 2 -16 -3 -23 -10 -12 -12 -18 -12 -37 0 -5 -7 -10 -16 -10
-8 0 -12 -4 -9 -10 3 -5 -1 -10 -9 -10 -8 0 -17 8 -20 18 -4 10 -13 19 -20 19
-8 0 -12 -6 -9 -14 3 -7 9 -10 14 -7 5 3 9 1 9 -5 0 -5 -4 -13 -10 -16 -5 -3
-10 -12 -10 -18 0 -7 7 -3 15 7 8 11 15 14 15 7 0 -7 5 -9 10 -6 13 8 13 -2
-2 -28 -17 -32 -18 -47 -2 -47 8 0 14 -4 14 -10 0 -9 -5 -11 -37 -14 -13 -1
-14 -3 -12 -33 0 -15 2 -15 8 2 7 17 9 15 13 -13 3 -23 1 -32 -9 -32 -8 0 -12
4 -9 9 3 4 -9 7 -27 5 -20 -2 -27 -1 -19 5 11 6 9 9 -6 13 -15 4 -19 2 -15 -9
5 -13 3 -13 -15 -2 -12 7 -20 15 -18 17 2 2 -7 15 -20 29 -13 14 -21 29 -18
34 3 5 -2 6 -10 3 -9 -3 -16 -1 -16 5 0 6 7 11 17 11 14 0 14 3 -3 22 -15 19
-16 20 -1 9 11 -9 17 -10 17 -2 0 6 6 10 12 8 8 -1 13 11 13 36 -1 20 3 37 8
37 4 0 3 9 -3 20 -10 18 -7 24 13 21 7 -1 10 21 9 64 -1 17 0 18 4 2 5 -14 9
-16 20 -6 7 6 21 8 30 5 12 -5 15 -2 10 9 -3 9 -2 13 4 10 5 -3 24 2 41 10 17
9 40 15 50 12 10 -3 23 1 29 8 6 8 20 12 30 10 11 -2 22 0 25 6 9 13 11 11 11
-10z m2867 4 c-3 -9 -8 -14 -10 -11 -3 3 -2 9 2 15 9 16 15 13 8 -4z m-493
-55 c0 -5 -5 -10 -11 -10 -5 0 -7 5 -4 10 3 6 8 10 11 10 2 0 4 -4 4 -10z m17
-42 c-3 -8 -6 -5 -6 6 -1 11 2 17 5 13 3 -3 4 -12 1 -19z m-2697 -26 c-9 -3
-9 -6 1 -13 7 -4 14 -24 14 -43 2 -36 -11 -49 -21 -21 -4 8 -10 13 -14 10 -5
-3 -11 -1 -15 5 -3 5 1 10 9 10 20 0 32 20 17 29 -8 5 -8 14 2 34 9 21 13 23
16 10 2 -10 -2 -19 -9 -21z m3126 -14 c-20 -28 -43 -31 -49 -7 -3 10 -1 17 4
13 5 -3 9 1 9 9 0 8 7 18 16 21 15 6 15 4 0 -19 -10 -15 -12 -25 -5 -25 6 0
16 14 22 31 8 20 13 25 15 15 2 -8 -4 -26 -12 -38z m-326 31 c0 -5 -9 -9 -20
-9 -22 0 -25 -27 -5 -43 6 -5 3 -7 -7 -3 -10 3 -18 1 -18 -4 0 -6 8 -10 18
-10 11 0 26 -8 36 -19 23 -25 0 -46 -28 -25 -29 21 -45 17 -40 -8 4 -21 4 -22
-5 -3 -14 29 -13 35 5 35 13 0 14 3 5 13 -6 8 -8 17 -4 21 15 15 10 35 -11 41
-21 7 -21 7 2 13 36 11 72 11 72 1z m63 -19 c-5 -19 39 -36 59 -24 6 4 8 3 4
-4 -10 -16 8 -23 67 -26 28 -2 64 -9 79 -16 23 -11 30 -11 44 1 14 11 18 11
22 1 3 -10 7 -10 20 0 15 12 16 11 3 -4 -11 -15 -10 -24 2 -15 2 1 11 -4 19
-11 10 -7 13 -22 10 -39 -5 -24 -6 -25 -18 -9 -7 10 -18 15 -25 11 -7 -5 -10
-3 -7 6 3 8 15 13 29 11 17 -1 12 3 -15 15 -36 15 -42 15 -66 1 -30 -17 -60
-8 -60 18 0 8 -4 12 -10 9 -17 -11 -11 -23 19 -41 19 -11 27 -23 23 -32 -4
-11 -1 -13 8 -7 8 5 11 4 6 -3 -3 -5 0 -13 6 -16 7 -3 1 -4 -13 -1 -18 3 -29
0 -32 -9 -4 -10 0 -13 14 -11 12 2 19 -2 19 -11 0 -8 6 -14 13 -15 8 0 8 -2
-2 -6 -11 -5 -11 -7 0 -15 11 -7 9 -8 -4 -4 -10 3 -34 6 -54 6 -30 0 -34 3
-31 23 2 12 9 21 15 20 12 -2 12 21 0 33 -4 4 -2 13 4 21 16 19 -7 46 -30 34
-9 -5 -23 -6 -31 -4 -11 3 -11 1 2 -6 10 -7 14 -19 12 -33 -4 -16 1 -13 14 11
13 24 21 30 27 21 5 -8 1 -16 -9 -22 -9 -5 -16 -14 -16 -19 0 -6 5 -7 10 -4 6
3 10 -1 10 -9 0 -20 -17 -30 -24 -14 -2 7 -4 2 -3 -12 2 -30 -26 -35 -31 -6
-3 13 0 16 9 11 9 -6 10 -2 6 16 -4 13 -7 29 -7 36 0 6 -9 9 -20 6 -14 -4 -20
-14 -20 -32 l1 -26 14 25 c10 18 14 20 15 8 0 -9 -4 -20 -10 -23 -5 -3 -10
-16 -10 -28 0 -20 -2 -19 -15 7 -26 50 -19 91 15 88 3 0 7 8 7 19 1 11 -3 17
-8 13 -6 -3 -7 4 -3 20 6 26 0 30 -43 29 -7 -1 -13 3 -13 8 0 5 -10 9 -22 8
-22 0 -22 -1 -3 -9 13 -5 14 -9 5 -9 -22 0 -59 17 -40 18 13 1 13 2 0 11 -11
7 -5 8 19 3 28 -5 33 -3 29 9 -4 8 -1 15 7 15 7 0 10 -8 8 -17z m311 1 c3 -5
-5 -16 -19 -25 -15 -10 -25 -12 -25 -5 0 6 9 13 20 16 11 3 17 9 14 14 -3 5
-3 9 0 9 3 0 7 -4 10 -9z m-104 -36 c0 -8 -2 -15 -4 -15 -2 0 -6 7 -10 15 -3
8 -1 15 4 15 6 0 10 -7 10 -15z m37 -21 c-3 -3 -12 -4 -19 -1 -8 3 -5 6 6 6
11 1 17 -2 13 -5z m-3110 -41 c3 -7 -4 -9 -16 -6 -12 3 -18 9 -15 15 7 11 26
6 31 -9z m2903 7 c0 -5 -5 -10 -11 -10 -5 0 -7 5 -4 10 3 6 8 10 11 10 2 0 4
-4 4 -10z m-100 -45 c0 -8 -9 -15 -20 -15 -25 0 -26 17 -2 23 9 3 18 5 20 6 1
0 2 -6 2 -14z m27 -32 c-3 -10 -5 -2 -5 17 0 19 2 27 5 18 2 -10 2 -26 0 -35z
m456 11 c-3 -8 -12 -13 -19 -10 -7 3 -16 0 -20 -6 -4 -6 -3 -8 4 -4 6 3 14 1
18 -5 4 -8 3 -9 -4 -5 -8 4 -12 0 -12 -11 0 -15 -2 -16 -10 -3 -14 21 -12 28
9 47 11 9 17 21 14 27 -4 6 1 5 9 -2 9 -8 14 -20 11 -28z m-473 -24 c0 -20 2
-25 13 -38 8 -10 7 -12 -3 -10 -8 2 -14 -5 -14 -17 0 -12 6 -19 14 -17 10 2
11 0 2 -11 -7 -8 -10 -17 -7 -20 3 -4 2 -4 -2 -1 -5 3 -6 7 -3 8 3 2 -1 10 -9
19 -7 10 -10 17 -6 17 5 0 0 10 -11 22 -12 14 -13 18 -3 10 9 -6 19 -9 22 -6
9 10 -13 45 -24 39 -5 -4 -9 -1 -9 4 0 6 9 11 20 11 11 0 20 -4 20 -10z m390
-27 c10 10 12 9 7 -4 -4 -13 -1 -16 16 -11 22 5 22 5 3 -16 -17 -20 -20 -20
-31 -5 -7 9 -17 13 -23 9 -12 -7 -11 -40 1 -52 3 -4 5 3 2 14 -2 12 0 24 4 26
11 7 11 -32 0 -60 -10 -29 -33 -22 -24 7 4 11 2 19 -5 19 -8 0 -9 7 -5 18 4 9
8 22 8 29 0 7 5 9 10 6 7 -4 8 1 3 12 -5 14 -4 16 7 7 10 -9 17 -8 27 1z
m-213 -65 c-3 -8 -6 -5 -6 6 -1 11 2 17 5 13 3 -3 4 -12 1 -19z m-2853 -6 c10
-16 -12 -35 -30 -27 -11 5 -22 7 -26 7 -5 -1 -8 3 -8 9 0 6 7 9 15 5 8 -3 15
-1 15 4 0 12 27 13 34 2z m2776 -17 c0 -14 -4 -25 -10 -25 -5 0 -10 -5 -10
-11 0 -5 5 -7 10 -4 6 3 10 -3 10 -14 0 -15 -6 -20 -21 -18 -12 1 -24 -3 -26
-9 -2 -7 5 -10 19 -7 19 4 24 0 24 -16 0 -12 -7 -21 -15 -21 -12 0 -11 -3 2
-12 16 -12 15 -13 -8 -13 -18 0 -23 4 -20 16 3 8 -1 24 -9 34 -12 17 -12 21 1
30 8 6 17 30 20 53 6 46 33 60 33 17z m291 -49 c-13 -15 -35 -16 -48 -1 -4 4
-3 6 2 3 6 -3 19 -2 30 3 28 11 29 11 16 -5z m40 -30 c8 5 13 -9 10 -28 -1 -7
14 -12 31 -9 4 0 5 -6 2 -14 -4 -9 0 -15 7 -15 8 0 23 -8 34 -16 19 -16 19
-16 -5 -9 -14 4 -32 15 -41 25 -9 11 -28 22 -41 25 -18 5 -25 12 -23 28 3 30
6 34 12 19 2 -6 9 -10 14 -6z m-128 -21 c-4 -11 -1 -13 11 -9 12 5 15 2 10
-10 -8 -20 -20 -21 -28 0 -9 24 -7 46 4 39 5 -3 7 -12 3 -20z m-2996 -27 c-3
-8 -6 -5 -6 6 -1 11 2 17 5 13 3 -3 4 -12 1 -19z m3136 -24 c-5 -15 -16 -18
-26 -8 -10 11 4 33 18 28 8 -3 11 -12 8 -20z m-3154 -12 c0 -15 -1 -15 -8 1
-6 17 -8 16 -19 -8 -13 -27 -8 -49 6 -29 4 6 15 14 26 17 10 4 16 13 13 21 -7
16 16 29 29 16 5 -4 18 -11 29 -14 11 -3 6 -4 -12 -2 -18 1 -30 -1 -27 -6 3
-4 0 -8 -5 -8 -6 0 -11 -9 -11 -20 0 -11 5 -20 10 -20 6 0 10 -7 10 -15 0 -8
-7 -15 -16 -15 -8 0 -13 -4 -10 -9 4 -5 -3 -7 -14 -4 -14 4 -20 0 -20 -11 0
-9 -7 -16 -16 -16 -20 0 -13 20 12 34 10 6 20 11 20 11 1 0 5 11 9 25 7 22 6
23 -8 11 -9 -7 -14 -17 -11 -22 3 -5 -7 -9 -22 -9 -21 0 -25 4 -21 20 3 11 1
20 -4 20 -5 0 -9 5 -9 11 0 5 4 8 9 4 5 -3 12 -1 16 5 3 5 0 10 -7 10 -7 0 -2
6 12 14 29 15 40 12 39 -12z m155 6 c-7 -25 -53 -88 -62 -88 -3 0 -1 5 6 12 7
7 12 16 12 22 0 5 -7 1 -15 -10 -14 -19 -14 -19 -15 1 -1 12 -4 15 -7 7 -3 -7
3 -23 13 -34 19 -21 19 -21 -12 -16 -27 4 -30 1 -26 -16 4 -15 1 -18 -16 -14
-14 4 -19 2 -15 -8 3 -9 -2 -12 -17 -9 -13 2 -19 1 -16 -3 4 -4 13 -7 19 -7 7
-1 11 -7 9 -15 -3 -11 -1 -11 13 0 14 12 18 11 27 -1 8 -11 9 -10 4 5 -9 28 2
55 23 53 13 -1 17 -7 13 -21 -8 -30 -43 -64 -49 -48 -4 9 -12 7 -32 -7 -14
-10 -41 -21 -59 -24 -28 -5 -31 -3 -22 13 7 13 6 20 -2 22 -6 2 -12 15 -14 29
-4 39 -9 56 -22 72 -13 15 -7 47 9 47 5 0 9 4 9 10 0 5 -8 7 -17 4 -15 -5 -16
-4 -3 5 8 5 18 7 23 2 11 -11 17 -52 6 -46 -5 4 -9 1 -9 -5 0 -6 7 -13 15 -16
8 -4 15 -10 15 -16 0 -5 -4 -7 -9 -3 -6 3 -9 -4 -8 -15 1 -16 8 -20 33 -20 19
0 34 6 38 15 4 13 10 14 26 5 16 -8 18 -8 14 4 -3 8 -1 17 5 21 15 8 14 42 -1
47 -20 7 2 28 29 28 13 0 36 9 50 20 34 26 46 25 37 -2z m2656 -29 c0 -5 -5
-9 -11 -9 -5 0 -7 6 -3 13 4 6 3 8 -1 4 -14 -12 -15 -37 -2 -34 7 1 12 -12 13
-30 1 -38 -11 -43 -22 -10 -9 25 -13 78 -7 90 5 9 33 -11 33 -24z m421 -19 c6
0 7 5 4 10 -3 6 -1 10 4 10 6 0 11 -9 11 -20 0 -18 -3 -19 -20 -10 -11 6 -20
16 -19 23 0 9 2 9 6 0 2 -7 9 -13 14 -13z m-3501 6 c0 -3 -4 -8 -10 -11 -5 -3
-10 -1 -10 4 0 6 5 11 10 11 6 0 10 -2 10 -4z m3544 -12 c3 -8 2 -12 -4 -9 -6
3 -10 10 -10 16 0 14 7 11 14 -7z m30 -27 c-3 -7 2 -3 12 8 l16 20 -5 -20 c-2
-11 -8 -29 -13 -40 -7 -18 -6 -19 11 -5 17 14 17 14 4 -7 -7 -13 -20 -25 -28
-28 -11 -4 -12 -3 -1 10 7 8 8 15 3 15 -5 0 -9 15 -9 34 0 19 4 32 8 30 5 -3
6 -11 2 -17z m-3409 -25 c-2 -3 0 -12 5 -21 5 -10 5 -23 -1 -32 -7 -12 -9 -12
-10 1 -1 8 -1 18 0 23 0 4 -4 7 -10 7 -5 0 -8 4 -4 9 3 5 1 12 -5 16 -5 3 -10
10 -10 16 0 5 9 4 20 -3 10 -7 17 -14 15 -16z m3293 6 c2 -10 -1 -18 -7 -18
-6 0 -8 6 -5 14 4 11 0 13 -14 9 -11 -2 -23 0 -27 7 -5 8 2 11 21 8 18 -2 30
-10 32 -20z m-414 -4 c3 -8 2 -12 -4 -9 -6 3 -10 10 -10 16 0 14 7 11 14 -7z
m453 0 c-3 -3 -12 -4 -19 -1 -8 3 -5 6 6 6 11 1 17 -2 13 -5z m-3508 -28 c-13
-14 -26 -22 -29 -19 -5 4 37 43 47 43 3 0 -5 -11 -18 -24z m3087 -31 c-1 -38
-21 -68 -23 -35 -1 11 2 22 8 25 5 4 9 11 9 16 0 6 -6 7 -12 3 -9 -5 -9 -2 1
9 18 22 18 22 17 -18z m91 -17 c-3 -7 -5 -2 -5 12 0 14 2 19 5 13 2 -7 2 -19
0 -25z m73 9 c0 -12 -4 -16 -12 -10 -7 4 -21 6 -30 5 -10 -2 -18 1 -18 6 0 14
6 17 34 17 18 0 26 -5 26 -18z m260 11 c0 6 5 12 11 12 7 0 9 -10 5 -24 -3
-14 -1 -36 6 -51 9 -20 9 -28 -2 -38 -10 -9 -11 -9 -6 1 4 6 5 12 1 12 -3 0
-10 -11 -15 -25 -5 -14 -13 -24 -17 -23 -5 1 -18 -2 -31 -6 -17 -6 -27 -3 -37
11 -12 15 -12 20 1 30 9 6 13 16 9 22 -3 6 -1 11 4 11 6 0 11 -5 11 -11 0 -8
4 -8 14 0 11 9 15 8 20 -4 3 -9 2 -14 -3 -11 -5 3 -11 -1 -15 -9 -3 -8 -1 -17
4 -20 6 -4 10 0 10 7 0 9 3 9 10 -2 7 -11 8 -4 6 22 -3 25 0 36 7 31 6 -4 8 1
4 13 -16 53 -19 69 -8 54 7 -10 11 -11 11 -2z m46 -26 c6 -4 7 -18 4 -32 l-7
-25 -12 28 c-16 39 -12 47 15 29z m-341 -12 c-3 -5 -10 -10 -16 -10 -5 0 -9 5
-9 10 0 6 7 10 16 10 8 0 12 -4 9 -10z m35 -9 c0 -6 -4 -13 -10 -16 -5 -3 -10
1 -10 9 0 9 5 16 10 16 6 0 10 -4 10 -9z m-2930 -11 c0 -5 -2 -10 -4 -10 -3 0
-8 5 -11 10 -3 6 -1 10 4 10 6 0 11 -4 11 -10z m2677 -30 c-2 -23 -10 -17 -12
10 -1 10 2 17 6 14 4 -2 7 -13 6 -24z m89 -12 c1 -24 -1 -35 -3 -25 -3 9 -10
17 -16 17 -8 0 -8 3 1 9 8 4 13 11 13 15 -2 13 -1 26 2 26 2 0 3 -19 3 -42z
m-2829 -30 c-3 -8 -6 -5 -6 6 -1 11 2 17 5 13 3 -3 4 -12 1 -19z m3089 -33
c-3 -8 -1 -15 3 -15 5 0 11 7 15 15 3 8 12 15 21 15 8 0 15 -7 15 -15 0 -8 -5
-15 -11 -15 -5 0 -7 5 -4 10 3 6 1 10 -5 10 -6 0 -10 -10 -9 -22 2 -13 0 -28
-4 -35 -9 -14 -37 -6 -37 9 0 6 6 5 15 -2 8 -7 15 -8 15 -2 0 5 -6 15 -14 22
-13 10 -12 40 1 40 3 0 3 -7 -1 -15z m-363 -65 c-7 -27 -13 -25 -11 4 1 14 5
23 9 20 4 -2 5 -13 2 -24z m672 21 c3 -5 2 -12 -3 -15 -5 -3 -9 1 -9 9 0 17 3
19 12 6z m-565 -40 c0 -6 -4 -12 -8 -15 -5 -3 -9 1 -9 9 0 8 4 15 9 15 4 0 8
-4 8 -9z m258 -23 c-2 -7 3 -12 11 -13 8 0 15 -6 17 -13 1 -7 0 -8 -3 -2 -3 6
-11 6 -22 1 -13 -8 -17 -5 -19 15 -1 13 3 24 8 24 6 0 9 -5 8 -12z m102 -88
c9 -6 10 -10 3 -10 -6 0 -10 -8 -8 -18 2 -11 -3 -19 -10 -19 -8 0 -12 4 -9 8
2 4 0 10 -5 14 -10 6 -4 35 8 35 3 0 13 -5 21 -10z m-180 -40 c0 -5 -5 -10
-11 -10 -5 0 -7 5 -4 10 3 6 8 10 11 10 2 0 4 -4 4 -10z m30 0 c0 -5 -4 -10
-10 -10 -5 0 -10 5 -10 10 0 6 5 10 10 10 6 0 10 -4 10 -10z m76 -2 c3 -4 0
-9 -5 -9 -40 -5 -68 -26 -76 -56 -5 -21 -8 -24 -16 -12 -7 12 -9 12 -9 -1 0
-9 5 -21 11 -27 7 -7 5 -15 -7 -27 -9 -9 -19 -14 -23 -10 -3 4 0 9 7 11 6 3 9
9 6 15 -4 5 -8 29 -9 51 -2 23 -1 34 2 25 2 -10 11 -18 20 -18 13 0 13 3 3 15
-12 14 -7 19 13 16 5 -1 11 8 14 19 4 15 13 20 35 18 16 -1 32 -6 34 -10z
m-2973 -93 c-3 -9 -8 -14 -10 -11 -3 3 -2 9 2 15 9 16 15 13 8 -4z m3187 5 c0
-5 -4 -10 -10 -10 -5 0 -10 5 -10 10 0 6 5 10 10 10 6 0 10 -4 10 -10z m-505
-9 c-9 -8 -36 -10 -30 -2 2 4 11 8 20 8 8 0 13 -3 10 -6z m85 -26 c0 -16 -6
-25 -15 -25 -18 0 -20 21 -3 38 17 17 18 16 18 -13z m-88 -32 c-6 -2 -9 -10
-5 -15 12 -21 11 -107 -3 -112 -13 -5 -12 23 1 44 3 6 0 10 -7 10 -8 0 -9 3
-3 8 6 4 10 13 9 20 -1 6 -2 17 -3 23 -1 8 -7 7 -18 -2 -15 -11 -14 -10 1 9
11 12 24 22 30 21 6 0 6 -3 -2 -6z m-1199 -35 c-2 -5 3 -8 12 -8 10 0 13 5 9
12 -4 7 -3 8 4 4 14 -8 -2 -46 -19 -46 -11 0 -46 -31 -41 -37 8 -10 0 -43 -10
-40 -7 1 -12 -7 -12 -18 -1 -15 5 -19 23 -17 13 2 28 -2 32 -10 7 -10 9 -9 9
4 0 11 5 15 15 12 8 -4 15 -2 15 4 0 6 17 2 37 -8 20 -10 43 -16 50 -13 7 3
19 0 27 -6 7 -6 16 -7 21 -3 4 4 3 -2 -3 -13 -8 -14 -7 -22 4 -30 13 -9 12
-14 -6 -33 -19 -20 -31 -22 -118 -23 -53 -1 -100 -1 -103 -1 -18 3 0 -37 29
-63 34 -32 40 -50 20 -59 -7 -3 -4 -4 8 -1 13 3 27 -2 38 -14 17 -19 17 -20
-3 -31 -14 -7 -21 -7 -21 0 0 5 7 10 16 10 14 0 14 3 4 15 -10 12 -16 13 -27
3 -22 -18 -104 -16 -138 4 -16 10 -36 18 -42 18 -20 0 -53 38 -53 59 0 10 -6
21 -14 24 -7 3 -17 27 -21 54 -10 54 -9 51 -20 77 -6 13 -5 21 3 24 7 2 10 8
7 13 -3 4 3 14 15 21 11 7 20 21 20 31 0 15 5 17 30 12 26 -6 31 -3 40 19 8
22 14 25 40 20 25 -6 29 -4 24 10 -4 12 0 16 16 16 11 0 19 -4 16 -9 -4 -5 2
-8 11 -6 10 1 17 9 15 18 -2 10 5 14 22 13 13 0 22 -4 19 -8z m-1526 -103 c0
-8 -4 -12 -9 -9 -4 3 -8 9 -8 15 0 5 4 9 8 9 5 0 9 -7 9 -15z m2733 -5 c0 -5
-8 -10 -17 -10 -15 0 -16 2 -3 10 19 12 20 12 20 0z m117 -16 c-3 -3 -12 -4
-19 -1 -8 3 -5 6 6 6 11 1 17 -2 13 -5z m-133 -10 c9 -3 16 -13 16 -22 0 -13
-3 -12 -14 4 -8 10 -18 16 -22 11 -4 -4 -2 -7 4 -7 6 0 9 -7 6 -15 -4 -9 0
-15 10 -15 9 0 16 -7 16 -15 0 -8 -9 -15 -20 -15 -13 0 -18 5 -14 15 4 8 1 15
-5 15 -9 0 -9 22 -2 48 1 3 8 2 25 -4z m124 -32 c2 -7 -2 -10 -12 -6 -9 3 -16
11 -16 16 0 13 23 5 28 -10z m92 8 c0 -5 -7 -10 -16 -10 -8 0 -12 5 -9 10 3 6
10 10 16 10 5 0 9 -4 9 -10z m-220 -69 c0 -4 -15 -13 -32 -18 -18 -5 -32 -15
-31 -21 2 -6 -7 -10 -18 -9 -19 1 -19 2 -2 15 15 11 70 40 81 42 1 0 2 -4 2
-9z m-123 -18 c-4 -3 -3 -11 3 -17 6 -8 2 -12 -13 -13 -17 -2 -19 0 -7 7 13 9
13 10 0 10 -13 0 -13 1 0 10 17 11 26 13 17 3z m-27 -43 c5 0 7 -12 5 -27 -2
-16 -4 -28 -5 -28 -1 0 -3 -24 -4 -53 -1 -36 1 -47 7 -36 5 9 7 32 4 50 -3 19
-2 32 3 29 4 -3 11 1 14 7 4 7 4 2 2 -10 -5 -25 -5 -24 44 -10 8 3 12 3 8 1
-12 -7 -10 -33 2 -33 16 0 11 -27 -6 -34 -9 -4 -19 -4 -22 -1 -3 3 0 5 6 5 7
0 12 7 12 15 0 8 -9 15 -20 15 -11 0 -20 -5 -20 -11 0 -6 -6 -16 -13 -24 -8
-7 -13 -27 -12 -44 2 -30 -19 -51 -29 -28 -2 7 -5 5 -5 -5 -1 -9 -4 -18 -8
-21 -9 -4 16 2 33 9 6 3 11 -1 11 -8 0 -7 -11 -14 -25 -15 -33 -2 -50 -19 -33
-35 10 -11 11 -10 6 4 -5 14 -2 16 14 13 12 -2 19 0 16 5 -3 6 1 7 9 4 12 -5
13 -9 3 -19 -7 -7 -15 -11 -19 -9 -3 2 -1 -10 5 -26 12 -32 3 -60 -22 -68 -10
-3 -11 0 -3 14 7 12 7 25 -1 41 -15 33 -36 30 -29 -4 5 -25 6 -25 13 -8 6 16
8 17 8 3 1 -28 -10 -47 -25 -41 -8 3 -14 11 -14 19 0 7 -9 18 -20 24 -22 12
-16 44 7 36 10 -4 13 1 11 17 -2 13 2 21 9 20 7 -2 10 4 7 12 -4 8 -1 15 5 15
6 0 10 6 9 13 -2 6 3 11 10 10 6 -2 12 2 12 7 0 6 -4 10 -10 10 -5 0 -10 5
-10 10 0 7 6 7 19 0 26 -13 28 -13 35 6 4 11 2 15 -8 11 -11 -4 -13 0 -10 16
15 66 15 77 -1 83 -12 5 -13 10 -4 20 6 8 14 12 18 9 10 -6 7 32 -3 42 -4 5
-7 4 -6 -2 1 -5 2 -16 1 -24 -1 -11 -4 -11 -17 0 -14 11 -14 13 0 21 9 5 17
17 17 26 1 15 2 15 6 0 2 -10 8 -18 13 -18z m146 23 c-10 -10 -46 -11 -46 -1
0 4 12 8 27 8 14 0 23 -3 19 -7z m24 -23 c0 -5 -4 -10 -10 -10 -5 0 -10 5 -10
10 0 6 5 10 10 10 6 0 10 -4 10 -10z m-227 -25 c4 -8 1 -17 -5 -21 -7 -4 -8
-3 -4 4 4 7 2 12 -3 12 -6 0 -11 5 -11 10 0 15 17 12 23 -5z m-2458 -15 c3 -6
-1 -7 -9 -4 -18 7 -21 14 -7 14 6 0 13 -4 16 -10z m3002 -65 c0 -8 -4 -12 -9
-9 -4 3 -8 9 -8 15 0 5 4 9 8 9 5 0 9 -7 9 -15z m-180 -129 c4 -3 3 -9 0 -13
-4 -4 -13 -1 -19 5 -7 7 -25 12 -41 12 -27 0 -28 -2 -22 -30 4 -19 3 -30 -4
-30 -12 0 -15 53 -3 64 8 8 80 2 89 -8z m-37 -15 c0 -17 -18 -21 -24 -6 -3 9
0 15 9 15 8 0 15 -4 15 -9z m440 -35 c0 -2 -7 -6 -15 -10 -8 -3 -15 -1 -15 4
0 6 7 10 15 10 8 0 15 -2 15 -4z m-684 -93 c-8 -15 -20 -43 -28 -60 -7 -18
-17 -33 -22 -33 -4 0 -5 8 -1 18 4 9 10 27 12 40 3 12 9 22 13 22 4 0 4 19 0
42 -11 56 -2 67 22 29 18 -28 18 -33 4 -58z m164 57 c0 -5 -4 -10 -10 -10 -5
0 -10 5 -10 10 0 6 5 10 10 10 6 0 10 -4 10 -10z m-402 -32 c-6 -17 -23 -9
-24 12 -1 16 1 18 13 9 7 -7 12 -16 11 -21z m56 10 c-5 -7 -9 -17 -9 -22 0 -5
-5 -11 -11 -13 -17 -6 -13 31 5 44 19 14 26 9 15 -9z m846 18 c0 -2 -7 -7 -16
-10 -8 -3 -12 -2 -9 4 6 10 25 14 25 6z m-936 -47 c-5 -9 23 -5 32 4 12 11 24
8 22 -5 -2 -8 6 -12 20 -11 12 2 22 -1 22 -6 0 -13 -54 -21 -62 -8 -5 8 -14 7
-34 -2 -22 -10 -29 -10 -36 1 -7 9 -8 6 -5 -9 3 -13 -2 -28 -10 -35 -14 -11
-15 -10 -9 9 4 12 3 24 -2 27 -5 3 -9 -3 -9 -12 -2 -39 6 -42 43 -17 39 27 59
31 69 15 3 -5 -1 -10 -9 -10 -10 0 -13 -6 -9 -16 4 -12 15 -14 42 -10 35 5 35
5 8 -5 -21 -8 -36 -8 -53 0 -27 12 -50 6 -58 -16 -4 -10 -14 -13 -31 -9 -14 4
-25 2 -25 -4 0 -5 6 -11 13 -11 37 -4 67 -18 67 -32 0 -7 -4 -7 -12 1 -15 15
-38 16 -38 2 0 -5 8 -10 18 -11 14 0 14 -2 -3 -8 -21 -8 -45 -4 -43 7 3 26 -3
35 -14 24 -16 -16 -33 -15 -19 1 6 8 8 17 4 20 -3 4 0 15 8 24 12 16 11 15 -8
-1 -13 -10 -20 -23 -17 -27 3 -5 1 -9 -5 -9 -12 0 -26 48 -17 57 3 4 6 -5 6
-18 0 -17 3 -20 9 -10 5 7 6 22 4 32 -4 14 0 19 13 19 15 0 16 2 5 9 -7 5 -10
14 -7 20 4 6 12 8 18 5 7 -4 8 -2 4 4 -8 13 23 31 42 25 6 -3 12 0 12 7 0 6 5
8 10 5 6 -4 7 -11 4 -17 -4 -7 -2 -8 5 -4 6 4 9 11 6 16 -8 12 19 19 27 6 4
-5 5 -13 2 -17z m126 22 c0 -14 -18 -23 -30 -16 -6 4 -8 11 -5 16 8 12 35 12
35 0z m847 -57 c-3 -3 -12 -4 -19 -1 -8 3 -5 6 6 6 11 1 17 -2 13 -5z m-879
-16 c-3 -7 -12 -14 -21 -16 -12 -2 -15 1 -11 12 7 19 38 22 32 4z m842 -3 c7
-8 8 -15 2 -15 -5 0 -15 7 -22 15 -7 8 -8 15 -2 15 5 0 15 -7 22 -15z m-753
-37 c-3 -8 -6 -5 -6 6 -1 11 2 17 5 13 3 -3 4 -12 1 -19z m-2624 -8 c10 -10 9
-11 -3 -4 -8 5 -23 7 -32 6 -10 -2 -18 1 -18 6 0 13 38 8 53 -8z m-63 6 c0 -2
-8 -10 -17 -17 -16 -13 -17 -12 -4 4 13 16 21 21 21 13z m2518 -24 c2 -14 -2
-22 -12 -22 -19 0 -28 14 -20 35 9 21 28 14 32 -13z m938 -6 c1 -7 -5 -13 -12
-13 -8 0 -14 4 -14 9 0 4 5 8 11 8 5 0 7 6 3 13 -4 6 -3 8 1 4 5 -4 10 -13 11
-21z m25 -3 c-12 -20 -14 -14 -5 12 4 9 9 14 11 11 3 -2 0 -13 -6 -23z m-1129
-21 c10 -8 15 -19 12 -24 -4 -6 3 -5 14 1 29 16 37 14 21 -6 -8 -9 -9 -14 -2
-10 7 4 14 -1 18 -14 6 -17 9 -19 16 -8 12 20 11 2 -1 -22 -14 -25 -24 -24
-40 6 -9 17 -17 22 -25 15 -7 -5 -16 -6 -20 -2 -5 4 -4 1 0 -7 6 -11 4 -13 -9
-8 -10 4 -19 1 -22 -8 -4 -8 -12 -15 -19 -15 -7 0 -16 -6 -18 -12 -4 -10 -6
-10 -6 0 -1 7 6 15 14 18 12 5 12 9 -2 30 -14 22 -14 24 2 24 11 0 15 5 11 15
-14 38 23 56 56 27z m69 -112 c8 2 23 2 34 1 15 -1 16 -4 7 -13 -16 -16 -91
-10 -109 8 -8 8 -19 14 -24 14 -5 0 -9 4 -9 10 0 5 6 7 14 4 8 -3 17 0 21 6 5
8 14 5 30 -10 12 -12 29 -21 36 -20z m1023 2 c2 -4 1 -14 -4 -21 -10 -17 -31
-5 -23 14 6 16 19 20 27 7z m-957 -48 c-20 -20 -40 -28 -77 -32 -33 -3 -50 -1
-50 7 0 6 15 11 33 11 44 0 85 20 91 45 4 15 8 17 17 8 10 -10 6 -18 -14 -39z
m434 9 c1 -16 2 -17 6 -1 2 10 10 15 19 11 12 -4 12 -7 -3 -18 -20 -15 -43 -9
-43 11 0 20 20 17 21 -3z m-2984 0 c-4 -3 -1 -13 6 -22 11 -14 10 -14 -5 -2
-21 15 -23 31 -6 31 6 0 8 -3 5 -7z m2219 -34 c15 -6 14 -7 -8 -6 -15 1 -26 6
-25 12 1 5 -6 9 -15 9 -10 -1 -18 2 -18 6 0 15 35 16 41 1 3 -8 14 -18 25 -22z
m14 31 c-12 -8 -12 -10 -1 -10 8 0 12 -2 9 -5 -7 -8 -38 5 -38 16 0 5 10 9 23
9 18 0 19 -2 7 -10z m-106 -15 c-4 -8 -10 -15 -15 -15 -4 0 -6 7 -3 15 4 8 10
15 15 15 4 0 6 -7 3 -15z m128 -17 c-8 -8 -9 -4 -5 13 4 13 8 18 11 10 2 -7
-1 -18 -6 -23z m670 10 c-6 -6 -15 -8 -19 -4 -4 4 -1 11 7 16 19 12 27 3 12
-12z m528 6 c0 -8 -5 -12 -10 -9 -6 4 -8 11 -5 16 9 14 15 11 15 -7z m-1325
-14 c12 10 15 10 15 -1 0 -10 3 -10 12 -1 20 20 24 14 27 -38 l2 -50 -45 0
c-25 0 -48 -4 -51 -10 -3 -5 -15 -10 -26 -10 -10 0 -19 -4 -19 -9 0 -17 19
-22 40 -11 15 8 20 8 20 -3 0 -23 -44 -41 -69 -28 -12 7 -19 16 -16 21 4 6 -3
6 -16 1 -33 -11 -35 -30 -5 -27 21 3 26 -1 26 -20 0 -21 -5 -24 -40 -24 -36 0
-40 2 -40 26 0 14 4 23 10 19 6 -3 10 -1 10 5 0 18 -34 7 -47 -15 -6 -11 -22
-22 -35 -26 -14 -3 -22 -11 -20 -22 2 -9 -2 -17 -8 -17 -6 0 -9 4 -5 9 3 5 1
12 -5 16 -5 3 -10 0 -10 -7 0 -10 -3 -9 -10 2 -10 16 16 54 31 44 5 -3 9 -1 9
5 0 5 9 8 21 6 15 -3 19 0 15 11 -3 9 -1 12 4 9 9 -6 15 8 11 29 -1 5 11 6 27
3 21 -4 29 -2 29 8 0 8 -4 12 -9 9 -4 -3 -8 -1 -8 3 0 5 9 14 20 21 19 12 20
11 14 -15 -3 -16 -13 -33 -21 -40 -9 -7 -11 -13 -4 -18 6 -3 14 1 17 9 3 9 10
14 14 11 5 -3 12 0 16 6 4 8 3 9 -4 5 -8 -4 -12 0 -11 11 1 26 13 54 24 55 6
0 9 4 7 9 -1 5 10 6 24 3 24 -6 26 -4 22 14 -7 24 10 35 30 19 8 -6 17 -5 27
3z m455 -20 c0 -28 -2 -30 -40 -30 -33 0 -40 3 -40 20 0 15 7 20 29 20 17 0
33 5 36 10 11 17 15 11 15 -20z m878 22 c9 9 12 8 12 -5 0 -22 -33 -22 -51 0
-13 15 -12 15 7 5 16 -8 24 -8 32 0z m-491 -8 c-3 -3 -12 -4 -19 -1 -8 3 -5 6
6 6 11 1 17 -2 13 -5z m-799 -157 c-7 -8 -18 -12 -25 -10 -7 3 -3 12 10 26 15
15 23 18 25 10 2 -7 -3 -19 -10 -26z m-8 29 c0 -3 -4 -8 -10 -11 -5 -3 -10 -1
-10 4 0 6 5 11 10 11 6 0 10 -2 10 -4z m180 -80 c0 -43 -1 -44 -38 -51 -22 -3
-43 -14 -51 -26 -11 -18 -10 -20 6 -16 10 3 33 8 51 12 28 6 32 4 32 -15 0
-22 -14 -23 -64 -4 -9 3 -16 1 -16 -5 0 -7 -9 -9 -25 -5 -25 6 -36 -10 -12
-19 8 -4 7 -6 -3 -6 -9 -1 -21 4 -28 11 -9 9 -12 8 -12 -4 0 -8 14 -21 30 -28
36 -15 38 -26 6 -34 -21 -5 -73 -73 -63 -82 12 -13 37 12 37 36 0 18 6 29 18
33 9 2 26 8 37 12 18 6 18 5 -2 -13 -28 -24 -29 -40 -5 -59 15 -13 15 -14 -10
-9 -32 7 -60 -2 -51 -17 4 -7 -7 -8 -33 -4 -33 5 -42 3 -52 -13 -11 -19 -10
-20 13 -15 74 15 80 16 65 5 -10 -6 -11 -10 -2 -10 6 0 12 -7 12 -15 0 -17
-17 -20 -22 -4 -4 13 -58 1 -58 -13 0 -5 -4 -6 -10 -3 -5 3 -10 1 -10 -4 0 -6
6 -11 13 -12 10 0 10 -2 0 -6 -7 -2 -13 -9 -13 -14 0 -6 5 -7 10 -4 6 3 10 1
10 -5 0 -7 -7 -9 -16 -6 -9 4 -23 1 -30 -5 -11 -9 -14 -9 -14 0 0 6 7 14 15
17 8 4 15 13 15 22 0 11 -5 9 -20 -8 -11 -13 -19 -28 -17 -33 4 -13 37 -18 37
-6 0 4 7 6 15 3 18 -7 20 -34 3 -34 -10 0 -10 -2 -1 -8 13 -8 12 -29 -1 -51
-5 -8 -5 -12 0 -8 5 3 9 -10 10 -29 0 -19 -3 -34 -8 -34 -4 0 -8 -5 -8 -11 0
-5 5 -7 11 -4 6 5 9 -9 8 -39 -2 -33 -7 -46 -18 -46 -12 0 -12 3 -3 12 7 7 12
17 12 22 0 6 -5 3 -11 -7 -6 -9 -14 -15 -20 -12 -5 3 -6 -1 -3 -9 3 -9 16 -16
28 -17 20 0 20 -1 -3 -10 -13 -5 -33 -7 -45 -4 -15 5 -17 4 -8 -3 11 -7 10
-11 -4 -16 -15 -6 -16 -9 -4 -16 11 -7 8 -10 -12 -15 -14 -4 -37 -19 -50 -33
l-23 -27 26 23 c25 22 45 30 35 13 -12 -18 31 -51 67 -51 19 0 37 3 40 8 2 4
3 2 2 -3 -2 -6 14 -19 35 -29 24 -11 41 -28 45 -43 3 -13 10 -21 15 -18 13 8
3 -57 -11 -69 -9 -8 -10 -8 -5 2 4 6 3 12 -3 12 -6 0 -15 -9 -21 -20 -9 -17
-14 -18 -35 -8 -14 6 -25 15 -25 20 0 5 12 1 28 -9 24 -16 26 -16 14 -1 -18
23 -5 41 24 35 14 -2 27 0 31 6 3 6 1 7 -5 3 -8 -5 -10 -1 -5 10 4 11 3 15 -5
10 -6 -3 -13 -2 -17 4 -3 5 0 10 7 10 7 0 -5 10 -27 21 -22 12 -41 25 -43 30
-6 14 -80 11 -85 -3 -4 -10 -7 -10 -17 -1 -10 9 -10 16 -2 26 9 11 3 13 -33
13 -25 -1 -45 -5 -45 -10 0 -4 -6 -6 -14 -3 -8 3 -21 -2 -30 -12 -24 -26 -19
-37 5 -15 22 19 22 19 11 -2 -13 -25 -39 -38 -47 -24 -4 6 -11 10 -16 10 -5 0
-1 -10 11 -22 24 -26 27 -46 4 -27 -15 12 -16 11 -10 -7 5 -17 2 -20 -27 -20
-30 0 -33 3 -31 23 2 17 -2 24 -14 22 -32 -3 -43 1 -36 12 5 8 -6 10 -35 7
-29 -2 -41 0 -41 9 0 7 -6 13 -12 13 -7 0 -22 8 -33 17 -16 12 -17 14 -3 10
24 -8 46 31 27 45 -11 8 -10 9 4 4 9 -3 17 -1 17 5 0 16 43 69 56 69 7 0 19
14 28 30 8 17 10 27 3 23 -6 -3 -1 7 11 24 l22 31 -27 23 c-16 12 -20 19 -10
16 9 -4 17 -2 17 3 0 4 -13 11 -29 15 -19 4 -28 11 -25 20 4 8 -7 17 -30 25
-27 9 -34 15 -31 32 3 12 10 25 16 28 6 4 11 11 12 16 1 4 14 22 30 38 17 20
27 25 28 16 0 -11 2 -11 6 -2 3 7 20 19 40 27 22 9 32 19 27 26 -4 8 -3 9 4 5
7 -4 12 -2 12 5 0 9 3 9 14 0 12 -10 13 -8 9 8 -3 12 -10 18 -16 14 -6 -3 -7
-1 -3 5 4 7 2 12 -5 12 -7 0 -9 3 -6 6 4 4 13 1 21 -5 10 -8 16 -9 21 -1 3 5
13 10 21 10 8 0 12 -5 9 -10 -4 -6 -10 -8 -14 -6 -4 3 -8 -1 -8 -9 0 -8 4 -15
9 -15 4 0 8 -7 8 -15 0 -8 5 -15 10 -15 6 0 10 2 10 4 0 2 3 12 6 20 5 12 2
15 -12 9 -12 -4 -15 -3 -10 5 8 14 36 16 36 3 0 -14 32 -23 43 -12 5 5 16 7
23 4 8 -3 14 1 14 8 0 10 3 10 12 1 7 -7 16 -12 22 -12 6 0 5 5 -2 12 -15 15
-15 28 -1 28 5 0 8 -4 5 -9 -3 -5 3 -11 13 -14 13 -3 18 0 15 8 -4 8 4 12 23
11 26 -1 28 2 26 34 -2 30 -1 32 7 13 12 -28 40 -30 40 -3 0 11 -7 20 -15 20
-8 0 -15 5 -15 11 0 5 8 9 18 8 26 -4 64 11 59 24 -2 7 -25 13 -50 15 -39 3
-47 6 -47 23 0 14 7 19 25 19 28 0 33 21 10 40 -21 18 -19 40 5 40 11 0 20 -7
20 -15 0 -8 5 -15 10 -15 6 0 10 5 10 11 0 5 5 7 12 3 9 -6 9 -9 0 -12 -14 -4
-16 -32 -3 -32 5 0 11 7 15 15 3 8 12 15 21 15 21 0 19 18 -2 23 -10 2 -6 3
10 1 26 -3 27 -2 27 41 l0 45 40 0 40 0 0 -44z m-526 -24 c2 -4 -4 -8 -14 -8
-10 0 -16 4 -14 8 3 4 9 8 14 8 5 0 11 -4 14 -8z m102 -20 c1 -7 0 -8 -3 -2
-7 15 -23 12 -23 -5 0 -8 -4 -15 -10 -15 -14 0 -12 27 3 33 17 7 30 3 33 -11z
m-171 -12 c-3 -10 -1 -29 5 -40 11 -20 9 -21 -22 -18 -29 3 -33 0 -36 -22 -2
-14 -10 -30 -18 -36 -17 -13 -27 -54 -14 -54 5 0 11 8 13 18 4 14 5 13 6 -4 0
-11 -5 -29 -13 -39 -12 -17 -14 -16 -20 17 -3 19 -4 42 -1 50 4 10 -1 17 -14
21 -17 4 -21 0 -21 -19 0 -13 5 -24 10 -24 6 0 10 -4 10 -9 0 -6 -9 -8 -20 -6
-17 3 -19 0 -15 -22 3 -19 1 -23 -7 -15 -8 8 -17 8 -30 1 -27 -14 -33 -5 -15
21 8 12 18 17 21 12 3 -6 1 -13 -4 -15 -6 -3 -5 -4 2 -3 7 2 13 11 13 22 1 10
7 18 14 16 7 -1 11 5 9 15 -1 10 1 24 5 31 10 15 47 16 47 1 0 -5 5 -7 10 -4
6 3 10 14 10 25 0 10 7 21 16 24 9 3 12 11 8 18 -5 8 -2 9 10 5 10 -4 18 -1
21 8 3 8 7 22 10 30 2 8 7 15 10 15 4 0 4 -9 0 -20z m1108 -39 c-3 -12 -12
-21 -20 -21 -12 0 -12 3 1 16 10 10 14 25 11 42 -5 24 -4 25 4 5 5 -11 7 -30
4 -42z m-1079 15 c2 -14 2 -26 0 -26 -9 0 -24 42 -18 51 8 14 15 6 18 -25z
m1216 4 c0 -5 -10 -10 -22 -9 -22 0 -22 1 -3 9 11 5 21 9 23 9 1 1 2 -3 2 -9z
m-1123 -22 c-3 -8 -6 -5 -6 6 -1 11 2 17 5 13 3 -3 4 -12 1 -19z m70 -10 c-3
-7 -5 -2 -5 12 0 14 2 19 5 13 2 -7 2 -19 0 -25z m-17 7 c0 -8 -9 -15 -20 -15
-20 0 -26 11 -13 23 12 13 33 7 33 -8z m340 -51 c0 -8 -4 -12 -10 -9 -5 3 -10
10 -10 16 0 5 5 9 10 9 6 0 10 -7 10 -16z m-2080 -50 c0 -8 -19 -13 -24 -6 -3
5 1 9 9 9 8 0 15 -2 15 -3z m1586 -9 c-8 -8 -27 -15 -43 -15 -27 -1 -27 -1 -9
-15 17 -13 18 -15 3 -15 -9 0 -18 5 -18 10 -6 35 -4 36 74 49 5 0 2 -6 -7 -14z
m-126 -42 c0 -2 -12 -14 -27 -27 -23 -20 -29 -21 -41 -9 -8 8 -11 17 -8 21 4
3 11 0 16 -8 7 -11 11 -12 25 0 9 7 14 19 11 26 -3 8 0 11 10 7 7 -3 14 -7 14
-10z m1201 -2 c-7 -5 -10 -14 -7 -20 4 -6 2 -11 -3 -11 -6 0 -11 9 -11 20 0
12 7 20 18 20 13 0 14 -2 3 -9z m-1330 -15 c-7 -9 -8 -17 -2 -20 5 -3 12 0 15
6 3 7 3 2 0 -12 -8 -32 -24 -51 -35 -44 -5 3 -9 -2 -9 -11 0 -10 5 -13 12 -9
7 4 8 3 4 -4 -4 -6 -13 -9 -21 -6 -19 8 -1 44 20 44 19 0 19 5 -2 37 -10 15
-12 24 -5 20 6 -5 12 -4 12 2 0 6 5 11 11 11 8 0 8 -4 0 -14z m249 4 c0 -5 -4
-10 -10 -10 -5 0 -10 5 -10 10 0 6 5 10 10 10 6 0 10 -4 10 -10z m176 -19 c-4
-5 0 -11 6 -14 7 -2 10 -7 7 -11 -3 -3 -16 3 -29 14 l-23 20 22 0 c12 0 20 -4
17 -9z m50 -3 c-10 -6 -22 -6 -26 -2 -5 5 3 10 18 11 22 1 24 0 8 -9z m-521
-24 c-11 -8 -19 -23 -17 -32 2 -15 1 -15 -8 -2 -8 12 -11 13 -19 1 -5 -7 -11
-9 -14 -5 -3 5 1 15 9 22 8 7 14 10 14 7 0 -3 10 3 22 15 12 11 24 17 27 14 3
-3 -3 -12 -14 -20z m95 6 c-8 -5 -19 -10 -25 -10 -5 0 -3 5 5 10 8 5 20 10 25
10 6 0 3 -5 -5 -10z m780 -83 c0 -18 -9 -52 -20 -75 -24 -49 -24 -52 -6 -52 8
0 17 8 19 18 3 9 5 -9 6 -40 1 -52 -1 -58 -19 -58 -17 0 -20 7 -20 40 0 29 -4
40 -15 40 -14 0 -14 4 0 36 8 20 15 56 15 80 0 37 3 44 20 44 16 0 20 -7 20
-33z m450 29 c0 -3 -4 -8 -10 -11 -5 -3 -10 -1 -10 4 0 6 5 11 10 11 6 0 10
-2 10 -4z m-2206 -43 c4 -8 12 -13 20 -10 7 3 19 0 25 -6 8 -8 11 -6 11 9 1
17 2 17 13 4 7 -10 28 -16 54 -15 38 0 43 -3 43 -22 0 -28 34 -31 63 -6 17 16
20 16 31 1 10 -14 14 -14 31 -2 17 13 20 12 27 -6 4 -11 19 -25 33 -30 14 -5
25 -12 25 -15 0 -4 -5 -3 -10 0 -6 4 -18 1 -27 -7 -15 -11 -16 -11 -9 7 5 15
4 17 -5 8 -19 -19 -3 -43 30 -43 16 0 31 5 33 11 2 6 15 12 30 12 20 2 24 5
16 15 -6 7 -14 9 -17 5 -9 -12 -31 -15 -31 -4 0 11 37 21 45 13 4 -4 14 -7 22
-7 9 0 17 -6 19 -13 1 -7 0 -8 -3 -2 -2 5 -9 10 -14 10 -6 0 -7 -5 -4 -10 3
-6 -5 -14 -19 -20 -35 -13 -34 -47 0 -61 15 -5 24 -12 21 -16 -4 -3 1 -12 11
-20 15 -12 15 -12 0 -7 -11 4 -16 1 -14 -10 1 -8 5 -18 8 -22 4 -3 4 -12 2
-19 -9 -22 18 -30 33 -10 12 18 13 18 13 -3 0 -13 6 -22 15 -22 8 0 15 -5 15
-11 0 -5 -4 -7 -10 -4 -5 3 -10 0 -10 -8 0 -8 10 -18 22 -24 19 -8 20 -10 4
-16 -11 -5 -15 -3 -10 5 4 7 3 8 -5 4 -9 -6 -9 -11 0 -22 14 -17 23 -18 13 -1
-4 6 -3 9 1 5 5 -5 10 -20 11 -34 2 -15 8 -32 15 -38 9 -8 10 -7 6 7 -10 28
10 19 22 -10 8 -21 10 -22 7 -6 -2 13 0 25 4 28 5 3 10 -23 12 -57 5 -77 9
-91 28 -100 12 -5 12 -7 -3 -7 -15 -1 -16 -3 -5 -15 11 -12 14 -12 19 2 3 8
17 16 32 16 23 2 25 0 12 -14 -17 -18 -20 -50 -6 -50 5 0 7 9 4 20 -3 11 -1
20 3 20 13 0 11 -103 -1 -113 -6 -5 -2 -6 8 -3 10 3 24 6 30 6 6 0 2 7 -9 15
-17 13 -17 14 -1 15 21 0 60 -37 52 -50 -4 -6 -1 -10 4 -10 6 0 11 -16 11 -35
0 -19 -5 -35 -11 -35 -6 0 -8 -7 -5 -16 3 -8 2 -13 -2 -10 -14 8 -82 -16 -75
-27 6 -10 -45 21 -64 40 -7 6 -18 35 -24 65 -12 54 -32 88 -55 88 -7 0 -15 6
-17 13 -3 7 -6 5 -6 -6 -1 -16 -3 -16 -30 -3 -16 9 -31 12 -35 9 -3 -4 -6 -1
-6 6 0 7 -5 9 -10 6 -6 -4 -8 -11 -5 -16 4 -5 1 -9 -4 -9 -6 0 -11 5 -11 10 0
13 -37 13 -45 0 -4 -6 -11 -8 -16 -5 -5 4 -6 -2 -2 -12 6 -16 5 -16 -10 -4 -9
7 -24 10 -33 7 -16 -6 -16 -8 1 -20 16 -12 15 -13 -14 -14 -25 0 -30 2 -22 12
8 9 -1 12 -39 12 -27 0 -46 -4 -43 -10 3 -5 1 -6 -6 -2 -9 6 -9 11 1 23 7 9
14 26 15 37 2 30 7 49 17 64 4 7 5 19 2 27 -2 7 0 15 5 17 5 2 11 23 13 48 2
25 8 56 14 70 9 21 7 28 -10 43 -11 9 -30 17 -42 17 -20 1 -20 1 -3 15 18 13
17 14 -5 17 -13 2 -21 8 -18 13 3 6 9 9 13 7 5 -1 5 2 2 8 -4 6 -13 9 -21 6
-9 -3 -11 0 -7 11 4 11 2 14 -5 9 -7 -4 -29 10 -53 33 -22 23 -45 41 -50 41
-5 0 -9 5 -9 11 0 5 -4 8 -9 4 -12 -7 -42 35 -35 47 3 4 -3 11 -13 15 -30 12
-56 41 -50 57 3 9 2 18 -4 21 -5 4 -7 11 -4 16 4 5 2 9 -3 9 -5 0 -7 11 -5 24
6 27 48 34 57 9z m816 -20 c0 -7 5 -13 10 -13 6 0 10 -4 10 -10 0 -19 -31 -10
-55 16 -17 18 -25 22 -25 12 0 -8 -7 -15 -15 -15 -17 0 -17 0 -9 21 3 9 10 14
14 11 5 -3 11 -1 14 4 8 12 56 -10 56 -26z m87 24 c0 -8 -6 -14 -14 -14 -17 0
-17 14 0 20 6 3 12 6 13 6 0 1 1 -5 1 -12z m-1067 -23 c0 -8 -19 -13 -24 -6
-3 5 1 9 9 9 8 0 15 -2 15 -3z m2269 -16 c-1 -7 -5 -24 -9 -38 -7 -21 -8 -22
-9 -5 -1 17 -3 17 -11 5 -8 -12 -10 -10 -10 11 0 14 3 29 7 32 11 12 33 8 32
-5z m-1452 -20 c-3 -8 -6 -5 -6 6 -1 11 2 17 5 13 3 -3 4 -12 1 -19z m50 -11
c-22 -39 -34 -48 -41 -31 -3 8 -2 12 3 9 5 -3 13 0 17 6 3 6 0 15 -7 20 -7 4
-10 11 -6 16 5 4 12 1 17 -7 8 -13 10 -12 10 3 0 10 4 15 10 12 6 -4 5 -14 -3
-28z m980 11 c-3 -8 -6 -5 -6 6 -1 11 2 17 5 13 3 -3 4 -12 1 -19z m-797 8 c0
-3 -4 -8 -10 -11 -5 -3 -10 -1 -10 4 0 6 5 11 10 11 6 0 10 -2 10 -4z m-283
-22 c5 -13 7 -13 14 -2 6 10 9 8 9 -7 0 -17 2 -17 10 -5 5 8 10 10 10 4 0 -18
-12 -24 -31 -13 -12 6 -19 6 -19 0 0 -5 6 -12 13 -14 6 -3 -1 -4 -18 -4 -21 2
-30 -3 -30 -13 0 -8 6 -16 13 -16 42 -4 42 -7 2 -15 -29 -6 -46 -5 -48 1 -5
14 -42 13 -42 -1 0 -6 7 -9 15 -6 8 4 17 2 20 -3 4 -6 -9 -10 -29 -10 -29 0
-36 4 -36 20 0 19 10 24 37 21 7 -1 10 5 7 13 -4 9 6 20 30 31 20 10 39 21 42
26 8 14 24 10 31 -7z m253 -36 c0 -4 -7 -8 -15 -8 -8 0 -15 5 -15 11 0 6 -7 9
-15 5 -9 -3 -15 0 -15 9 0 20 33 24 48 6 6 -8 12 -18 12 -23z m740 22 c0 -5
-4 -10 -10 -10 -5 0 -10 5 -10 10 0 6 5 10 10 10 6 0 10 -4 10 -10z m-40 -30
c0 -11 -4 -20 -10 -20 -5 0 -10 9 -10 20 0 11 5 20 10 20 6 0 10 -9 10 -20z
m-1195 0 c3 -5 1 -10 -4 -10 -6 0 -11 5 -11 10 0 6 2 10 4 10 3 0 8 -4 11 -10z
m2290 0 c-3 -5 -11 -10 -16 -10 -6 0 -7 5 -4 10 3 6 11 10 16 10 6 0 7 -4 4
-10z m-521 -26 c7 -17 -6 -18 -22 -2 -9 9 -12 8 -12 -5 0 -9 -4 -17 -9 -17 -5
0 -8 10 -7 23 1 18 6 22 23 19 12 -2 24 -10 27 -18z m-1248 -18 c9 -20 9 -26
-3 -30 -22 -9 -23 -8 -23 24 0 36 11 39 26 6z m714 14 c0 -5 -4 -10 -10 -10
-5 0 -10 5 -10 10 0 6 5 10 10 10 6 0 10 -4 10 -10z m-1695 -9 c10 -17 -12
-21 -25 -6 -10 12 -10 15 3 15 9 0 18 -4 22 -9z m682 -17 c-3 -3 -12 -4 -19
-1 -8 3 -5 6 6 6 11 1 17 -2 13 -5z m-37 -14 c0 -5 -5 -10 -11 -10 -5 0 -7 5
-4 10 3 6 8 10 11 10 2 0 4 -4 4 -10z m-30 -4 c0 -2 -11 -6 -25 -8 -13 -3 -22
-1 -19 3 5 9 44 13 44 5z m120 -25 c0 -17 -15 -19 -28 -5 -11 12 -9 14 8 14
11 0 20 -4 20 -9z m270 -6 c0 -8 -4 -15 -10 -15 -5 0 -10 7 -10 15 0 8 5 15
10 15 6 0 10 -7 10 -15z m66 -22 c-12 -12 -58 -15 -51 -3 3 5 18 10 32 10 15
0 23 -3 19 -7z m994 -8 c-7 -8 -18 -15 -24 -15 -6 0 -4 5 4 11 12 9 11 10 -7
6 -13 -3 -23 -1 -23 4 0 5 14 9 31 9 27 0 30 -2 19 -15z m-1070 -5 c0 -5 -4
-10 -10 -10 -5 0 -10 5 -10 10 0 6 5 10 10 10 6 0 10 -4 10 -10z m860 -32 c-1
-28 -6 -36 -35 -49 -19 -9 -35 -14 -35 -12 0 9 34 38 44 38 6 0 12 8 14 18 4
19 -13 23 -22 5 -5 -10 -7 -10 -12 0 -9 19 -23 14 -17 -7 3 -11 -2 -21 -11
-24 -9 -4 -13 -12 -11 -19 4 -9 -2 -14 -15 -15 -11 -1 -18 2 -15 8 4 5 1 9 -4
9 -6 0 -11 -4 -11 -10 0 -5 -5 -10 -11 -10 -5 0 -7 5 -4 10 3 6 0 10 -7 10 -9
0 -9 3 2 10 11 7 11 10 2 10 -7 0 -11 4 -7 10 3 5 12 7 20 3 11 -4 13 -1 8 13
-5 13 -3 16 10 11 9 -3 22 0 29 8 7 8 30 14 51 15 35 0 37 -1 37 -32z m-800
12 c0 -5 -5 -10 -11 -10 -5 0 -7 5 -4 10 3 6 8 10 11 10 2 0 4 -4 4 -10z
m-470 -10 c0 -5 -5 -10 -11 -10 -5 0 -7 5 -4 10 3 6 8 10 11 10 2 0 4 -4 4
-10z m65 1 c3 -5 1 -12 -5 -16 -5 -3 -10 1 -10 9 0 18 6 21 15 7z m356 0 c19
-1 21 -31 2 -31 -7 0 -13 4 -13 10 0 5 -10 9 -21 7 -12 -1 -24 4 -26 11 -3 8
3 11 19 8 12 -3 30 -5 39 -5z m221 -23 c-8 -8 -9 -4 -5 13 4 13 8 18 11 10 2
-7 -1 -18 -6 -23z m-292 13 c0 -6 -4 -13 -10 -16 -5 -3 -10 1 -10 9 0 9 5 16
10 16 6 0 10 -4 10 -9z m-283 -53 c-3 -7 -5 -2 -5 12 0 14 2 19 5 13 2 -7 2
-19 0 -25z m324 23 c0 10 2 11 6 2 2 -7 12 -13 21 -13 29 0 4 -11 -32 -15 -24
-2 -36 1 -36 9 0 20 12 27 27 15 10 -9 13 -8 14 2z m639 0 c0 -9 -41 -23 -49
-16 -3 4 28 20 47 24 1 1 2 -3 2 -8z m1559 -4 c6 -8 8 -17 4 -20 -11 -12 -23
-8 -23 7 0 8 -6 17 -12 19 -8 4 -7 6 3 6 9 1 22 -5 28 -12z m-2255 -12 c3 -8
1 -15 -4 -15 -6 0 -10 7 -10 15 0 8 2 15 4 15 2 0 6 -7 10 -15z m1113 -10 c0
-8 -4 -12 -8 -9 -4 2 -12 -3 -17 -12 -5 -9 -14 -14 -21 -10 -17 11 -13 24 7
22 9 0 16 5 15 12 -2 6 3 12 10 12 8 0 14 -7 14 -15z m-412 -5 c3 -6 -1 -7 -9
-4 -18 7 -21 14 -7 14 6 0 13 -4 16 -10z m232 4 c-3 -3 -12 -4 -19 -1 -8 3 -5
6 6 6 11 1 17 -2 13 -5z m-170 -10 c-3 -3 -12 -4 -19 -1 -8 3 -5 6 6 6 11 1
17 -2 13 -5z m383 2 c0 -2 -8 -10 -17 -17 -16 -13 -17 -12 -4 4 13 16 21 21
21 13z m-1070 -16 c0 -5 -2 -10 -4 -10 -3 0 -8 5 -11 10 -3 6 -1 10 4 10 6 0
11 -4 11 -10z m885 -13 c0 -18 -5 -23 -17 -19 -10 2 -18 13 -18 23 0 11 7 19
18 19 11 0 17 -8 17 -23z m-201 -1 c11 4 16 1 16 -14 0 -26 -27 -36 -46 -18
-19 20 -20 53 0 37 7 -6 21 -9 30 -5z m296 -5 c0 -5 -7 -16 -15 -25 -8 -8 -15
-19 -15 -25 0 -5 -3 -12 -7 -14 -5 -3 -8 6 -8 19 0 13 6 24 13 24 6 0 12 7 12
15 0 8 5 15 10 15 6 0 10 -4 10 -9z m30 -10 c0 -5 -7 -12 -16 -15 -14 -5 -15
-4 -4 9 14 17 20 19 20 6z m-98 -28 c-5 -10 -11 -24 -13 -31 -3 -8 -10 -6 -22
9 -18 20 -18 21 2 14 15 -5 21 -2 21 9 0 9 5 16 10 16 7 0 7 -6 2 -17z m1283
-2 c3 -5 2 -12 -3 -15 -5 -3 -9 1 -9 9 0 17 3 19 12 6z m-2458 -38 c-3 -10 -5
-4 -5 12 0 17 2 24 5 18 2 -7 2 -21 0 -30z m146 7 c27 -32 12 -50 -44 -50 -51
0 -64 15 -35 39 12 10 19 8 36 -9 11 -11 25 -18 30 -15 17 10 11 25 -10 25
-20 0 -26 11 -13 23 10 11 17 8 36 -13z m585 2 c-9 -2 -20 -12 -23 -23 -4 -10
-11 -19 -16 -19 -13 0 -11 7 7 35 10 16 21 22 32 17 16 -6 16 -7 0 -10z m407
-3 c5 -6 4 -14 -4 -21 -10 -11 -12 -10 -9 2 2 10 -12 19 -42 27 l-45 13 45 -5
c25 -4 49 -10 55 -16z m-349 -29 c17 0 18 -16 2 -24 -10 -5 -10 -7 0 -12 6 -3
12 -12 12 -20 0 -8 -6 -14 -12 -14 -9 0 -8 -3 2 -10 8 -5 11 -12 7 -17 -5 -4
-11 -2 -15 4 -4 6 -21 13 -37 16 l-30 4 33 2 c43 1 45 31 2 31 -16 0 -30 2
-30 4 0 2 -3 11 -6 20 -5 12 0 16 20 16 14 0 26 6 27 13 0 10 2 10 6 0 2 -7
11 -13 19 -13z m314 10 c12 -1 11 -3 -3 -11 -13 -7 -23 -6 -40 7 l-22 16 25
-6 c14 -3 32 -6 40 -6z m-416 -26 c11 -4 16 -19 16 -44 0 -21 6 -41 13 -43 6
-3 -8 -5 -33 -5 -25 0 -39 2 -32 5 6 2 12 22 12 43 0 21 -6 41 -12 43 -8 4 -7
6 4 6 9 1 23 -2 32 -5z m376 -3 c0 -5 -6 -14 -14 -20 -12 -10 -14 -9 -11 6 2
10 4 19 4 21 2 6 21 1 21 -7z m-185 -11 c-3 -5 -11 -10 -16 -10 -6 0 -7 5 -4
10 3 6 11 10 16 10 6 0 7 -4 4 -10z m45 -10 c0 -13 -7 -20 -20 -20 -23 0 -26
10 -8 28 18 18 28 15 28 -8z m92 -22 c-6 -6 -9 0 -9 18 0 23 1 24 9 10 7 -12
7 -21 0 -28z m-751 5 c13 -16 12 -17 -3 -4 -10 7 -18 15 -18 17 0 8 8 3 21
-13z m-6 -22 c3 -5 2 -12 -3 -15 -5 -3 -9 1 -9 9 0 17 3 19 12 6z m363 -17 c2
-1 -13 -1 -33 1 -27 3 -38 -1 -42 -13 -23 -69 -36 -85 -46 -57 -7 16 51 87 64
79 4 -2 11 0 14 6 5 8 12 7 23 -2 10 -7 18 -13 20 -14z m-313 -7 c16 -5 15 -5
-4 -4 -14 1 -26 9 -28 17 -3 10 -2 11 4 4 4 -7 17 -14 28 -17z m525 -7 c0 -5
7 -10 16 -10 8 0 12 5 9 10 -3 6 -1 10 4 10 14 0 14 -17 1 -25 -6 -4 -8 -10
-5 -15 3 -5 -8 -16 -26 -25 -17 -9 -28 -12 -25 -6 4 6 2 11 -3 11 -15 0 -14
33 1 48 15 15 28 16 28 2z m-570 -15 c0 -8 -4 -15 -10 -15 -5 0 -10 7 -10 15
0 8 5 15 10 15 6 0 10 -7 10 -15z m130 5 c0 -5 -5 -10 -11 -10 -5 0 -7 5 -4
10 3 6 8 10 11 10 2 0 4 -4 4 -10z m247 -25 c-3 6 12 9 39 6 29 -2 44 -8 44
-17 0 -8 -4 -14 -10 -14 -5 0 -10 -4 -10 -9 0 -5 9 -7 20 -4 12 3 20 0 20 -6
0 -7 5 -9 12 -5 7 4 8 3 4 -5 -6 -9 -11 -9 -21 -1 -10 9 -16 6 -25 -9 -6 -12
-17 -21 -25 -21 -7 0 -20 -7 -29 -15 -10 -11 -17 -12 -22 -4 -5 8 -9 8 -14 -1
-5 -8 -10 -2 -15 17 l-8 28 -6 -29 c-3 -17 -10 -29 -15 -27 -5 2 -13 -4 -18
-13 -5 -8 -15 -13 -23 -10 -19 8 -19 20 0 22 8 1 22 3 30 4 9 1 15 12 15 27 0
21 -2 23 -11 11 -8 -12 -9 -10 -4 7 4 15 0 25 -12 32 -19 10 -11 27 17 33 8 2
21 9 28 16 12 10 17 10 29 -5 8 -10 12 -13 10 -8z m263 21 c0 -2 -7 -7 -16
-10 -8 -3 -12 -2 -9 4 6 10 25 14 25 6z m203 -22 c-7 -19 -10 -18 -16 5 -3 13
-1 18 9 14 7 -2 10 -11 7 -19z m-783 6 c0 -5 11 -10 25 -10 16 0 25 -6 25 -15
0 -8 5 -15 10 -15 6 0 10 7 10 15 0 8 8 15 18 15 10 0 22 3 26 7 3 4 17 8 29
10 19 3 18 1 -8 -18 l-30 -21 30 6 c24 5 26 4 13 -4 -10 -6 -30 -10 -45 -8
-16 2 -27 -2 -26 -8 1 -6 -8 -9 -21 -7 -28 6 -69 -14 -60 -28 16 -26 10 -57
-12 -68 -26 -12 -31 -3 -11 18 10 11 8 12 -11 6 -22 -6 -23 -5 -17 17 6 19 5
21 -6 11 -15 -15 -23 -57 -9 -48 6 4 10 -5 9 -22 -1 -17 -3 -21 -6 -11 -4 16
-6 16 -19 3 -22 -22 -34 -18 -34 10 0 14 5 25 10 25 6 0 10 9 10 20 0 11 6 20
14 20 8 0 23 11 34 25 12 15 22 21 24 13 5 -13 28 -2 28 13 0 6 -4 7 -10 4 -5
-3 -10 -2 -10 4 0 6 13 8 33 5 l32 -5 -33 17 c-31 16 -33 16 -52 -1 -21 -19
-37 -15 -25 5 13 21 65 37 65 20z m-131 -34 c-5 -6 -9 -18 -9 -28 0 -21 -26
-24 -37 -4 -4 8 -17 16 -28 19 -11 3 -4 5 15 4 29 -2 36 2 38 20 3 18 6 20 17
10 8 -7 10 -16 4 -21z m877 4 c0 -12 -4 -16 -9 -11 -5 5 -6 14 -3 20 10 15 12
14 12 -9z m1457 -24 c4 -10 0 -12 -15 -8 -15 4 -17 7 -6 13 17 11 15 11 21 -5z
m-573 -37 c0 -6 -4 -7 -10 -4 -5 3 -10 11 -10 16 0 6 5 7 10 4 6 -3 10 -11 10
-16z m-1430 7 c0 -9 -30 -14 -35 -6 -4 6 3 10 14 10 12 0 21 -2 21 -4z m420
-15 c0 -5 -10 -11 -22 -14 -22 -6 -22 -6 -4 8 23 17 26 18 26 6z m-565 -21 c3
-5 1 -18 -4 -27 -6 -11 -11 -13 -11 -5 0 7 -5 10 -10 7 -6 -4 -8 -10 -5 -15 3
-5 0 -12 -6 -16 -8 -4 -9 -3 -5 4 4 7 1 12 -6 12 -11 0 -11 2 0 9 7 4 12 12
11 17 -4 25 23 35 36 14z m39 -16 c3 -8 2 -12 -4 -9 -6 3 -10 1 -10 -4 0 -6
-5 -11 -10 -11 -7 0 -7 6 0 20 13 24 16 25 24 4z m81 -1 c11 -7 14 -13 8 -13
-7 0 -15 5 -18 10 -9 14 -21 12 -38 -5 -13 -12 -15 -12 -20 5 -4 16 0 19 21
18 15 -1 36 -8 47 -15z m2001 4 c4 -3 -4 -4 -16 -2 -30 6 -40 16 -12 12 12 -2
24 -6 28 -10z m-2189 -49 c-3 -8 -6 -5 -6 6 -1 11 2 17 5 13 3 -3 4 -12 1 -19z
m1634 3 c-9 -6 -10 -11 -2 -15 6 -4 11 -18 11 -32 0 -14 -4 -23 -9 -20 -5 4
-11 0 -14 -6 -2 -7 -8 -9 -13 -5 -4 4 -3 16 4 27 8 13 8 21 1 25 -12 8 7 35
25 35 6 0 5 -4 -3 -9z m40 -18 c13 -16 12 -17 -3 -4 -10 7 -18 15 -18 17 0 8
8 3 21 -13z m-2323 -53 c-16 -27 -24 -35 -26 -24 -2 9 2 20 10 25 7 5 14 13
14 19 2 18 4 20 14 20 6 0 0 -18 -12 -40z m826 1 c-2 -3 -12 3 -22 13 -16 17
-16 18 5 5 12 -7 20 -15 17 -18z m1052 -14 c8 3 14 0 14 -7 0 -6 -4 -8 -10 -5
-5 3 -10 1 -10 -4 0 -6 -5 -11 -12 -11 -6 0 -8 3 -5 7 4 3 1 13 -5 22 -10 13
-10 14 1 4 7 -6 20 -9 27 -6z m-1671 -15 c-3 -3 -11 0 -18 7 -9 10 -8 11 6 5
10 -3 15 -9 12 -12z m2073 -13 c3 -8 1 -11 -3 -7 -5 4 -14 3 -21 -3 -9 -8 -11
-5 -7 11 6 23 24 22 31 -1z m-703 -48 c-2 -2 -11 3 -19 12 -8 8 -12 17 -9 21
3 3 12 -2 19 -12 7 -9 11 -19 9 -21z m289 24 c-4 -8 -11 -12 -16 -9 -6 4 -5
10 3 15 19 12 19 11 13 -6z m-1864 1 c0 -2 -7 -7 -16 -10 -8 -3 -12 -2 -9 4 6
10 25 14 25 6z m2273 -51 c-3 -9 -8 -14 -10 -11 -3 3 -2 9 2 15 9 16 15 13 8
-4z m-826 -121 c2 -6 -3 -11 -10 -11 -8 0 -14 6 -14 14 0 15 19 12 24 -3z
m563 -149 c0 -5 -5 -3 -10 5 -5 8 -10 20 -10 25 0 6 5 3 10 -5 5 -8 10 -19 10
-25z m-735 -24 c3 -5 0 -13 -6 -17 -7 -4 -9 -3 -5 4 3 5 0 13 -6 15 -9 4 -10
6 -1 6 6 1 14 -3 18 -8z m-161 -79 c3 -5 -1 -9 -9 -9 -8 0 -12 4 -9 9 3 4 7 8
9 8 2 0 6 -4 9 -8z m-949 -92 c-3 -5 -1 -10 6 -10 7 0 10 -3 6 -6 -9 -9 -28 6
-22 17 4 5 8 9 11 9 3 0 2 -4 -1 -10z m825 0 c0 -5 -5 -10 -11 -10 -5 0 -7 5
-4 10 3 6 8 10 11 10 2 0 4 -4 4 -10z m-639 -263 c-10 -9 -11 -8 -5 6 3 10 9
15 12 12 3 -3 0 -11 -7 -18z"/>
<path d="M2210 6616 c0 -2 7 -7 16 -10 8 -3 12 -2 9 4 -6 10 -25 14 -25 6z"/>
<path d="M1935 6471 c-3 -5 -2 -12 3 -15 5 -3 9 1 9 9 0 17 -3 19 -12 6z"/>
<path d="M1890 6429 c0 -5 5 -7 10 -4 6 3 10 8 10 11 0 2 -4 4 -10 4 -5 0 -10
-5 -10 -11z"/>
<path d="M1842 6413 c-6 -2 -10 -9 -6 -14 8 -14 21 -11 21 6 0 8 -1 15 -1 14
-1 0 -7 -3 -14 -6z"/>
<path d="M1826 6357 c3 -10 9 -15 12 -12 3 3 0 11 -7 18 -10 9 -11 8 -5 -6z"/>
<path d="M3256 6552 c-3 -5 1 -9 9 -9 8 0 12 4 9 9 -3 4 -7 8 -9 8 -2 0 -6 -4
-9 -8z"/>
<path d="M3195 6516 c-15 -11 -17 -17 -7 -28 6 -8 10 -18 7 -21 -3 -4 -2 -5 2
-2 4 3 8 15 10 27 2 12 9 26 16 30 7 4 7 8 1 8 -5 0 -19 -6 -29 -14z"/>
<path d="M3170 6426 c0 -2 7 -7 16 -10 8 -3 12 -2 9 4 -6 10 -25 14 -25 6z"/>
<path d="M3164 6363 c2 -10 -2 -22 -8 -26 -7 -6 -6 -7 3 -5 16 5 24 35 11 43
-5 3 -7 -3 -6 -12z"/>
<path d="M3129 6308 c-4 -9 -5 -48 -1 -44 2 3 13 -5 23 -17 18 -20 18 -20 12
-2 -3 11 -12 24 -20 28 -7 4 -13 13 -13 18 0 6 5 7 10 4 6 -3 10 -1 10 4 0 9
-17 16 -21 9z"/>
<path d="M3133 6199 c9 -5 17 -20 18 -32 0 -21 1 -21 8 -2 8 20 -11 44 -34 44
-5 0 -2 -4 8 -10z"/>
<path d="M3155 6109 c-4 -6 -5 -12 -2 -15 2 -3 7 2 10 11 7 17 1 20 -8 4z"/>
<path d="M3155 5990 c-3 -5 1 -10 10 -10 9 0 13 5 10 10 -3 6 -8 10 -10 10 -2
0 -7 -4 -10 -10z"/>
<path d="M3113 5894 c0 -8 2 -12 5 -9 2 2 13 -6 23 -18 16 -19 18 -19 12 -3
-4 13 -3 17 5 12 8 -5 10 -2 5 9 -5 13 -7 14 -14 3 -6 -8 -9 -9 -9 -2 0 7 -6
14 -13 17 -8 3 -14 -1 -14 -9z"/>
<path d="M3155 5820 c-3 -5 -2 -10 4 -10 5 0 13 5 16 10 3 6 2 10 -4 10 -5 0
-13 -4 -16 -10z"/>
<path d="M2410 6359 c0 -5 5 -7 10 -4 6 3 10 8 10 11 0 2 -4 4 -10 4 -5 0 -10
-5 -10 -11z"/>
<path d="M3490 6440 c0 -19 3 -21 12 -12 9 9 9 15 0 24 -9 9 -12 7 -12 -12z"/>
<path d="M3535 6321 c-3 -5 -2 -12 3 -15 5 -3 9 1 9 9 0 17 -3 19 -12 6z"/>
<path d="M3576 6274 c-4 -9 -4 -19 -1 -22 3 -3 5 0 5 6 0 7 3 11 8 10 4 -2 8
1 10 7 6 17 -15 16 -22 -1z"/>
<path d="M3586 6242 c-2 -4 4 -8 14 -8 10 0 16 4 14 8 -3 4 -9 8 -14 8 -5 0
-11 -4 -14 -8z"/>
<path d="M2315 5920 c4 -6 11 -8 16 -5 14 9 11 15 -7 15 -8 0 -12 -5 -9 -10z"/>
<path d="M2305 5890 c-3 -6 1 -7 9 -4 18 7 21 14 7 14 -6 0 -13 -4 -16 -10z"/>
<path d="M2286 5737 c3 -10 9 -15 12 -12 3 3 0 11 -7 18 -10 9 -11 8 -5 -6z"/>
<path d="M3880 5750 c0 -5 8 -10 18 -10 10 0 23 -5 29 -11 8 -8 13 -7 18 3 5
7 5 10 0 6 -4 -4 -17 -1 -29 7 -24 17 -36 19 -36 5z"/>
<path d="M3968 5663 c7 -3 16 -2 19 1 4 3 -2 6 -13 5 -11 0 -14 -3 -6 -6z"/>
<path d="M3126 5751 c-3 -5 1 -11 9 -14 9 -4 12 -1 8 9 -6 16 -10 17 -17 5z"/>
<path d="M3097 5727 c-2 -6 -1 -21 3 -32 4 -11 3 -25 -2 -32 -6 -7 -5 -14 3
-19 7 -4 9 -3 5 4 -3 6 -2 13 3 17 6 3 8 11 5 19 -3 7 5 18 18 24 21 11 21 11
-7 6 -21 -4 -26 -3 -16 4 8 6 9 12 3 16 -5 3 -12 0 -15 -7z"/>
<path d="M3081 5693 c-1 -6 -4 -20 -7 -30 -5 -17 -5 -17 6 0 6 10 9 23 6 30
-3 9 -5 9 -5 0z"/>
<path d="M3070 5575 c-19 -22 -8 -25 13 -3 9 10 13 18 8 18 -5 0 -14 -7 -21
-15z"/>
<path d="M3077 5550 c-16 -20 -12 -27 8 -12 9 6 19 32 12 32 -1 0 -10 -9 -20
-20z"/>
<path d="M1246 5663 c-6 -14 -5 -15 5 -6 7 7 10 15 7 18 -3 3 -9 -2 -12 -12z"/>
<path d="M1266 5654 c-3 -8 -2 -13 3 -9 5 3 12 -1 14 -7 4 -8 6 -7 6 4 1 23
-15 32 -23 12z"/>
<path d="M2625 5551 c-3 -5 2 -11 10 -15 8 -3 17 -1 20 3 3 5 -2 11 -10 15 -8
3 -17 1 -20 -3z"/>
<path d="M2150 5540 c-12 -7 -12 -12 -3 -21 10 -10 18 -10 38 -1 14 6 25 16
25 22 0 14 -17 13 -23 -2 -4 -10 -6 -10 -6 0 -1 14 -11 15 -31 2z m20 -10 c0
-5 -5 -10 -11 -10 -5 0 -7 5 -4 10 3 6 8 10 11 10 2 0 4 -4 4 -10z"/>
<path d="M4031 5444 c0 -11 3 -14 6 -6 3 7 2 16 -1 19 -3 4 -6 -2 -5 -13z"/>
<path d="M4045 5389 c-9 -14 -2 -20 14 -10 8 6 9 11 3 15 -6 3 -14 1 -17 -5z"/>
<path d="M4005 5349 c-3 -4 2 -6 10 -5 21 3 28 13 10 13 -9 0 -18 -4 -20 -8z"/>
<path d="M4056 5347 c3 -10 9 -15 12 -12 3 3 0 11 -7 18 -10 9 -11 8 -5 -6z"/>
<path d="M3990 5220 c0 -5 5 -10 11 -10 5 0 7 5 4 10 -3 6 -8 10 -11 10 -2 0
-4 -4 -4 -10z"/>
<path d="M4044 5216 c-3 -8 -4 -25 -2 -38 3 -17 5 -13 9 15 5 38 2 47 -7 23z"/>
<path d="M4070 5181 c0 -6 4 -13 10 -16 6 -3 7 1 4 9 -7 18 -14 21 -14 7z"/>
<path d="M4070 5139 c0 -5 5 -7 10 -4 6 3 10 8 10 11 0 2 -4 4 -10 4 -5 0 -10
-5 -10 -11z"/>
<path d="M4079 5069 c-7 -15 -14 -18 -21 -11 -14 14 -38 3 -37 -17 0 -11 2
-12 6 -3 3 9 11 6 25 -10 18 -21 20 -22 16 -3 -2 14 2 19 12 17 8 -2 12 0 8 3
-4 4 -3 16 3 26 5 11 7 19 5 19 -3 0 -10 -9 -17 -21z"/>
<path d="M4030 5009 c0 -5 5 -7 10 -4 6 3 10 8 10 11 0 2 -4 4 -10 4 -5 0 -10
-5 -10 -11z"/>
<path d="M4035 4960 c-3 -6 2 -13 12 -17 10 -3 22 -8 27 -11 5 -3 6 0 2 6 -4
7 -15 12 -24 12 -15 0 -15 2 -2 10 9 6 10 10 3 10 -6 0 -15 -5 -18 -10z"/>
<path d="M3974 4860 c1 -14 6 -24 9 -22 11 4 11 6 -1 27 -11 19 -12 18 -8 -5z"/>
<path d="M1745 5470 c-4 -7 -3 -15 2 -19 13 -9 10 -31 -7 -41 -8 -5 -12 -11
-9 -14 3 -3 15 4 27 17 18 19 19 25 8 46 -9 17 -15 20 -21 11z"/>
<path d="M1835 5400 c3 -5 8 -10 11 -10 2 0 4 5 4 10 0 6 -5 10 -11 10 -5 0
-7 -4 -4 -10z"/>
<path d="M1566 5344 c-11 -8 -16 -14 -10 -14 13 0 39 18 34 24 -3 2 -14 -2
-24 -10z"/>
<path d="M1593 5314 c-5 -13 -7 -13 -14 -2 -7 10 -9 9 -9 -4 0 -22 18 -24 26
-3 4 8 11 12 17 8 6 -3 7 -1 3 5 -10 16 -15 15 -23 -4z"/>
<path d="M2820 5346 c0 -2 7 -6 15 -10 8 -3 15 -1 15 4 0 6 -7 10 -15 10 -8 0
-15 -2 -15 -4z"/>
<path d="M3150 5261 c0 -5 5 -13 10 -16 6 -3 10 -2 10 4 0 5 -4 13 -10 16 -5
3 -10 2 -10 -4z"/>
<path d="M3195 5190 c3 -5 8 -10 11 -10 2 0 4 5 4 10 0 6 -5 10 -11 10 -5 0
-7 -4 -4 -10z"/>
<path d="M3304 5049 c15 -9 16 -13 5 -20 -9 -6 -10 -9 -2 -9 6 0 15 5 18 10 4
6 11 7 17 4 7 -4 8 -2 4 5 -4 6 -12 9 -17 6 -5 -4 -9 -1 -9 4 0 6 -8 11 -17
11 -16 -1 -16 -2 1 -11z"/>
<path d="M1015 4869 c-4 -6 -5 -12 -2 -15 2 -3 7 2 10 11 7 17 1 20 -8 4z"/>
<path d="M956 4838 c3 -4 0 -8 -5 -8 -6 0 -11 -5 -11 -12 0 -9 3 -9 11 -1 9 9
15 8 26 -3 8 -8 20 -14 26 -14 7 0 1 9 -13 20 -15 12 -18 18 -7 14 9 -3 17 -2
17 3 0 5 -11 9 -24 9 -14 0 -22 -4 -20 -8z"/>
<path d="M862 4804 c-7 -8 -17 -12 -22 -9 -6 3 -7 -1 -3 -10 5 -13 7 -14 14
-3 6 9 9 9 9 1 0 -7 -10 -22 -22 -34 -13 -12 -17 -19 -10 -15 6 4 12 2 12 -4
0 -6 10 -10 23 -8 12 2 21 9 20 15 -2 8 4 10 14 6 12 -5 15 -2 10 10 -8 22 8
30 41 22 26 -6 26 -7 8 -21 -11 -8 -15 -14 -9 -14 6 0 16 6 23 14 9 12 4 19
-32 37 -54 29 -60 30 -76 13z m33 -24 c-4 -12 -9 -19 -12 -17 -3 3 -2 15 2 27
4 12 9 19 12 17 3 -3 2 -15 -2 -27z"/>
<path d="M828 4691 c-23 -22 -23 -22 7 -57 14 -16 23 -33 21 -39 -2 -5 1 -17
5 -27 6 -12 5 -16 -6 -14 -8 1 -18 6 -22 11 -4 4 -2 5 5 1 6 -4 12 -2 12 3 0
6 -6 11 -12 11 -9 0 -8 4 2 11 12 9 11 10 -7 6 -13 -3 -26 -1 -29 4 -3 5 -9 9
-14 9 -5 0 2 -11 16 -25 14 -14 23 -29 19 -34 -3 -5 3 -8 12 -7 10 2 25 -7 35
-18 16 -19 17 -19 18 -3 0 10 -4 15 -10 12 -15 -9 -12 0 12 41 l21 36 -21 -6
c-24 -8 -28 1 -11 24 9 13 10 12 5 -2 -3 -12 -1 -15 10 -11 13 5 13 8 -1 23
-11 12 -13 20 -6 25 6 3 11 11 11 16 0 6 -4 7 -10 4 -6 -3 -7 1 -4 9 9 23 -36
20 -58 -3z m38 -40 c2 -28 -20 -21 -24 8 -3 16 1 22 10 19 7 -3 14 -15 14 -27z
m24 -65 c0 -3 -4 -8 -10 -11 -5 -3 -10 -1 -10 4 0 6 5 11 10 11 6 0 10 -2 10
-4z"/>
<path d="M791 4631 c-9 -6 -6 -10 10 -14 28 -8 34 -3 16 11 -7 6 -19 7 -26 3z"/>
<path d="M791 4573 c7 -10 15 -20 16 -22 2 -2 3 3 3 11 0 9 -7 19 -16 22 -15
6 -15 4 -3 -11z"/>
<path d="M765 4700 c3 -5 8 -10 11 -10 2 0 4 5 4 10 0 6 -5 10 -11 10 -5 0 -7
-4 -4 -10z"/>
<path d="M3700 4690 c0 -5 7 -10 16 -10 8 0 12 -4 9 -10 -3 -5 1 -10 10 -10
12 0 15 5 11 16 -3 9 -6 18 -6 20 0 2 -9 4 -20 4 -11 0 -20 -4 -20 -10z"/>
<path d="M3761 4684 c0 -11 3 -14 6 -6 3 7 2 16 -1 19 -3 4 -6 -2 -5 -13z"/>
<path d="M3807 4681 c3 -11 11 -22 18 -24 10 -4 10 0 1 19 -13 29 -26 32 -19
5z"/>
<path d="M3800 4620 c0 -5 5 -10 11 -10 5 0 7 5 4 10 -3 6 -8 10 -11 10 -2 0
-4 -4 -4 -10z"/>
<path d="M880 4470 c-9 -6 -10 -10 -3 -10 6 0 15 5 18 10 8 12 4 12 -15 0z"/>
<path d="M3997 4369 c7 -7 15 -10 18 -7 3 3 -2 9 -12 12 -14 6 -15 5 -6 -5z"/>
<path d="M976 4282 c-3 -5 1 -9 9 -9 8 0 12 4 9 9 -3 4 -7 8 -9 8 -2 0 -6 -4
-9 -8z"/>
<path d="M770 4254 c-11 -12 -10 -18 5 -32 18 -16 18 -16 6 1 -11 14 -11 20
-1 32 7 8 10 15 7 15 -2 0 -10 -7 -17 -16z"/>
<path d="M800 4155 c0 -3 10 -10 23 -16 19 -8 18 -9 -8 -4 -28 6 -29 5 -11 -8
12 -9 16 -19 12 -28 -4 -8 2 -3 14 11 18 21 21 22 15 5 -5 -16 -4 -17 6 -8 10
10 9 17 -6 33 -16 18 -45 28 -45 15z"/>
<path d="M3656 4242 c-2 -4 -1 -14 5 -22 7 -12 9 -10 9 8 0 23 -5 28 -14 14z"/>
<path d="M4026 4041 c-4 -7 -5 -15 -2 -18 9 -9 19 4 14 18 -4 11 -6 11 -12 0z"/>
<path d="M4015 3781 c-3 -5 -2 -12 3 -15 5 -3 9 1 9 9 0 17 -3 19 -12 6z"/>
<path d="M3910 3739 c0 -5 5 -7 10 -4 6 3 10 8 10 11 0 2 -4 4 -10 4 -5 0 -10
-5 -10 -11z"/>
<path d="M2320 3510 c0 -5 5 -10 11 -10 5 0 7 5 4 10 -3 6 -8 10 -11 10 -2 0
-4 -4 -4 -10z"/>
<path d="M3175 2889 c-4 -6 -5 -12 -2 -15 2 -3 7 2 10 11 7 17 1 20 -8 4z"/>
<path d="M3080 2750 c0 -5 5 -10 11 -10 5 0 7 5 4 10 -3 6 -8 10 -11 10 -2 0
-4 -4 -4 -10z"/>
<path d="M3055 2690 c-3 -5 -1 -10 4 -10 6 0 11 5 11 10 0 6 -2 10 -4 10 -3 0
-8 -4 -11 -10z"/>
<path d="M3156 2692 c-3 -6 -1 -14 5 -17 14 -9 20 -2 10 14 -6 8 -11 9 -15 3z"/>
<path d="M3110 2656 c0 -2 7 -7 16 -10 8 -3 12 -2 9 4 -6 10 -25 14 -25 6z"/>
<path d="M2782 2531 c-11 -6 -10 -10 0 -19 11 -8 14 -7 14 9 0 10 0 19 -1 19
0 0 -6 -4 -13 -9z"/>
<path d="M2732 2504 c-12 -13 -10 -14 12 -8 16 4 26 2 26 -5 0 -6 5 -11 12
-11 6 0 3 9 -7 20 -21 24 -26 24 -43 4z"/>
<path d="M2525 2370 c-3 -6 1 -7 9 -4 18 7 21 14 7 14 -6 0 -13 -4 -16 -10z"/>
<path d="M2770 1809 c0 -5 5 -7 10 -4 6 3 10 8 10 11 0 2 -4 4 -10 4 -5 0 -10
-5 -10 -11z"/>
<path d="M2761 1717 c-13 -21 -12 -21 5 -5 10 10 16 20 13 22 -3 3 -11 -5 -18
-17z"/>
<path d="M2705 1659 c-4 -6 -5 -12 -2 -15 2 -3 7 2 10 11 7 17 1 20 -8 4z"/>
<path d="M2672 1547 c-8 -10 -6 -13 7 -13 11 0 17 6 14 13 -3 7 -6 13 -8 13
-1 0 -7 -6 -13 -13z"/>
<path d="M2440 1449 c0 -5 5 -7 10 -4 6 3 10 8 10 11 0 2 -4 4 -10 4 -5 0 -10
-5 -10 -11z"/>
<path d="M1608 1803 c7 -3 16 -2 19 1 4 3 -2 6 -13 5 -11 0 -14 -3 -6 -6z"/>
<path d="M1665 1800 c3 -5 8 -10 11 -10 2 0 4 5 4 10 0 6 -5 10 -11 10 -5 0
-7 -4 -4 -10z"/>
<path d="M1635 1780 c3 -5 16 -10 28 -9 21 0 21 1 2 9 -28 12 -37 12 -30 0z"/>
<path d="M1810 1519 c0 -5 5 -7 10 -4 6 3 10 8 10 11 0 2 -4 4 -10 4 -5 0 -10
-5 -10 -11z"/>
<path d="M1867 1450 c9 -11 19 -17 21 -15 6 6 -18 35 -29 35 -5 0 -1 -9 8 -20z"/>
<path d="M2061 1943 c7 -12 15 -20 18 -17 3 2 -3 12 -13 22 -17 16 -18 16 -5
-5z"/>
<path d="M1863 1868 c-2 -18 0 -20 7 -8 12 18 13 30 2 30 -4 0 -9 -10 -9 -22z"/>
<path d="M1830 1857 c0 -10 -8 -14 -22 -11 -13 2 -17 2 -10 -2 6 -3 10 -9 7
-14 -3 -4 4 -10 15 -13 11 -3 17 -1 14 4 -3 6 -1 16 6 24 7 9 8 15 0 20 -5 3
-10 0 -10 -8z"/>
<path d="M2727 1325 c-7 -18 6 -27 27 -19 13 5 13 8 1 20 -17 18 -21 18 -28
-1z"/>
<path d="M2480 1288 c0 -4 4 -8 9 -8 4 0 24 -11 44 -24 37 -26 47 -24 47 6 0
10 5 18 11 18 6 0 9 -8 7 -18 -3 -12 0 -19 9 -19 9 0 11 7 7 21 -4 12 -7 22
-9 24 -6 7 -125 8 -125 0z m76 -12 c21 -21 17 -26 -11 -13 -14 7 -25 15 -25
20 0 12 20 8 36 -7z"/>
<path d="M2195 1240 c-3 -5 -1 -10 4 -10 6 0 11 5 11 10 0 6 -2 10 -4 10 -3 0
-8 -4 -11 -10z"/>
<path d="M2260 1196 c0 -2 7 -7 16 -10 8 -3 12 -2 9 4 -6 10 -25 14 -25 6z"/>
<path d="M1891 6641 c-12 -8 -12 -12 -2 -25 17 -20 31 -20 31 0 0 8 -4 12 -10
9 -6 -3 -7 1 -4 9 7 18 5 19 -15 7z"/>
<path d="M3040 6520 c0 -5 5 -10 11 -10 5 0 7 5 4 10 -3 6 -8 10 -11 10 -2 0
-4 -4 -4 -10z"/>
<path d="M2626 5671 c-4 -5 3 -7 14 -4 23 6 26 13 6 13 -8 0 -17 -4 -20 -9z"/>
<path d="M3790 2920 c-8 -5 -12 -12 -9 -15 4 -3 12 1 19 10 14 17 11 19 -10 5z"/>
<path d="M3994 2346 c-16 -23 -8 -42 11 -26 8 6 11 19 9 28 -5 14 -3 14 6 -1
9 -15 8 -22 -6 -38 -9 -10 -13 -19 -7 -19 5 0 18 -7 29 -16 10 -8 12 -12 4 -8
-12 6 -13 5 -3 -7 9 -11 9 -19 2 -26 -6 -6 -5 -10 5 -10 8 0 15 3 14 6 -2 23
6 31 32 31 24 0 28 3 23 18 -4 11 0 9 13 -6 19 -23 20 -23 37 -4 16 18 16 20
2 26 -9 3 -13 2 -10 -4 3 -6 1 -10 -4 -10 -6 0 -11 7 -11 15 0 8 -5 15 -11 15
-8 0 -8 5 1 15 11 14 7 19 -12 16 -5 0 -8 5 -8 13 0 24 -99 16 -116 -8z"/>
<path d="M4150 2324 c0 -8 5 -12 10 -9 6 4 8 11 5 16 -9 14 -15 11 -15 -7z"/>
<path d="M3573 2103 c4 -3 2 -12 -5 -20 -8 -11 -7 -12 6 -7 18 7 22 34 4 34
-6 0 -8 -3 -5 -7z"/>
<path d="M3955 2060 c-3 -5 -4 -10 0 -10 3 0 1 -9 -5 -19 -7 -14 -7 -22 0 -26
6 -4 10 -3 9 2 -3 20 2 23 23 12 21 -11 21 -12 4 -25 -17 -12 -17 -13 8 -20
14 -3 36 -4 48 -1 12 3 29 2 39 -3 13 -8 17 -6 15 8 -2 11 -10 16 -25 14 -19
-3 -22 0 -17 16 4 11 2 23 -4 27 -6 3 -8 10 -5 15 3 4 -6 7 -20 5 -14 -1 -25
2 -25 6 0 12 -37 11 -45 -1z"/>
<path d="M4067 2021 c-3 -14 0 -19 13 -18 11 1 18 8 17 19 -2 24 -23 23 -30
-1z"/>
<path d="M4110 2011 c0 -6 4 -12 8 -15 5 -3 9 1 9 9 0 8 -4 15 -9 15 -4 0 -8
-4 -8 -9z"/>
<path d="M3478 1893 c6 -2 18 -2 25 0 6 3 1 5 -13 5 -14 0 -19 -2 -12 -5z"/>
<path d="M3992 1798 c2 -6 10 -14 16 -16 7 -2 10 2 6 12 -7 18 -28 22 -22 4z"/>
<path d="M4435 1400 c3 -5 8 -10 11 -10 2 0 4 5 4 10 0 6 -5 10 -11 10 -5 0
-7 -4 -4 -10z"/>
<path d="M1410 1209 c0 -5 5 -7 10 -4 6 3 10 8 10 11 0 2 -4 4 -10 4 -5 0 -10
-5 -10 -11z"/>
<path d="M4420 1110 c0 -5 7 -10 15 -10 8 0 15 5 15 10 0 6 -7 10 -15 10 -8 0
-15 -4 -15 -10z"/>
<path d="M3210 1040 c-8 -5 -12 -12 -9 -15 4 -3 12 1 19 10 14 17 11 19 -10 5z"/>
<path d="M3935 630 c-3 -5 -1 -10 4 -10 6 0 11 5 11 10 0 6 -2 10 -4 10 -3 0
-8 -4 -11 -10z"/>
<path d="M1666 481 c-3 -5 1 -11 9 -15 9 -3 15 0 15 9 0 16 -16 20 -24 6z"/>
<path d="M2125 230 c-3 -5 -1 -10 4 -10 6 0 11 5 11 10 0 6 -2 10 -4 10 -3 0
-8 -4 -11 -10z"/>
</g>
</svg>
